<?xml version="1.0" encoding="UTF-8" standalone="no" ?>
<!DOCTYPE svg PUBLIC "-//W3C//DTD SVG 1.1//EN" "http://www.w3.org/Graphics/SVG/1.1/DTD/svg11.dtd">
<svg xmlns="http://www.w3.org/2000/svg" xmlns:xlink="http://www.w3.org/1999/xlink" version="1.1" width="1280" height="1024" viewBox="0 0 1280 1024" xml:space="preserve">
<desc>Created with Fabric.js 5.3.0</desc>
<defs>
</defs>
<g transform="matrix(1 0 0 1 640 512)" id="background-logo"  >
<rect style="stroke: none; stroke-width: 0; stroke-dasharray: none; stroke-linecap: butt; stroke-dashoffset: 0; stroke-linejoin: miter; stroke-miterlimit: 4; fill: rgb(255,255,255); fill-opacity: 0; fill-rule: nonzero; opacity: 1;"  paint-order="stroke"  x="-640" y="-512" rx="0" ry="0" width="1280" height="1024" />
</g>
<g transform="matrix(4.984883982033379 0 0 4.984883982033379 640.0000000000001 513.4605263157895)" id="logo-logo"  >
<g style=""  paint-order="stroke"   >
		<g transform="matrix(0.11477886884123543 0 0 -0.11477886884123543 0 0)"  >
<linearGradient id="SVGID_276789" gradientUnits="userSpaceOnUse" gradientTransform="matrix(1 0 0 1 0 0)"  x1="0" y1="0" x2="0" y2="1613">
<stop offset="0%" style="stop-color:rgb(91,36,122);stop-opacity: 1"/>
<stop offset="100%" style="stop-color:rgb(27,206,223);stop-opacity: 1"/>
</linearGradient>
<path style="stroke: none; stroke-width: 1; stroke-dasharray: none; stroke-linecap: butt; stroke-dashoffset: 0; stroke-linejoin: miter; stroke-miterlimit: 4; fill: url(#SVGID_276789); fill-rule: nonzero; opacity: 1;"  paint-order="stroke"  transform=" translate(-798.5, -806.5)" d="M 760 0 L 760 1 L 747 1 L 747 2 L 733 2 L 733 3 L 720 3 L 720 4 L 712 4 L 712 5 L 704 5 L 704 6 L 696 6 L 696 7 L 688 7 L 688 8 L 680 8 L 680 9 L 674 9 L 674 10 L 668 10 L 668 11 L 663 11 L 663 12 L 657 12 L 657 13 L 651 13 L 651 14 L 646 14 L 646 15 L 640 15 L 640 16 L 636 16 L 636 17 L 631 17 L 631 18 L 627 18 L 627 19 L 622 19 L 622 20 L 618 20 L 618 21 L 614 21 L 614 22 L 609 22 L 609 23 L 605 23 L 605 24 L 601 24 L 601 25 L 597 25 L 597 26 L 593 26 L 593 27 L 590 27 L 590 28 L 586 28 L 586 29 L 582 29 L 582 30 L 579 30 L 579 31 L 575 31 L 575 32 L 571 32 L 571 33 L 568 33 L 568 34 L 565 34 L 565 35 L 562 35 L 562 36 L 559 36 L 559 37 L 555 37 L 555 38 L 552 38 L 552 39 L 549 39 L 549 40 L 546 40 L 546 41 L 544 41 L 544 42 L 541 42 L 541 43 L 538 43 L 538 44 L 535 44 L 535 45 L 532 45 L 532 46 L 529 46 L 529 47 L 527 47 L 527 48 L 524 48 L 524 49 L 521 49 L 521 50 L 519 50 L 519 51 L 516 51 L 516 52 L 514 52 L 514 53 L 511 53 L 511 54 L 509 54 L 509 55 L 506 55 L 506 56 L 504 56 L 504 57 L 501 57 L 501 58 L 499 58 L 499 59 L 496 59 L 496 60 L 494 60 L 494 61 L 491 61 L 491 62 L 489 62 L 489 63 L 486 63 L 486 64 L 484 64 L 484 65 L 482 65 L 482 66 L 479 66 L 479 67 L 477 67 L 477 68 L 475 68 L 475 69 L 473 69 L 473 70 L 471 70 L 471 71 L 469 71 L 469 72 L 467 72 L 467 73 L 464 73 L 464 74 L 462 74 L 462 75 L 460 75 L 460 76 L 458 76 L 458 77 L 456 77 L 456 78 L 454 78 L 454 79 L 451 79 L 451 80 L 449 80 L 449 81 L 447 81 L 447 82 L 445 82 L 445 83 L 443 83 L 443 84 L 441 84 L 441 85 L 439 85 L 439 86 L 438 86 L 438 87 L 436 87 L 436 88 L 434 88 L 434 89 L 432 89 L 432 90 L 430 90 L 430 91 L 428 91 L 428 92 L 426 92 L 426 93 L 424 93 L 424 94 L 422 94 L 422 95 L 421 95 L 421 96 L 419 96 L 419 97 L 417 97 L 417 98 L 415 98 L 415 99 L 413 99 L 413 100 L 411 100 L 411 101 L 409 101 L 409 102 L 407 102 L 407 103 L 406 103 L 406 104 L 404 104 L 404 105 L 402 105 L 402 106 L 401 106 L 401 107 L 399 107 L 399 108 L 397 108 L 397 109 L 396 109 L 396 110 L 394 110 L 394 111 L 392 111 L 392 112 L 391 112 L 391 113 L 389 113 L 389 114 L 387 114 L 387 115 L 386 115 L 386 116 L 384 116 L 384 117 L 382 117 L 382 118 L 381 118 L 381 119 L 379 119 L 379 120 L 377 120 L 377 121 L 376 121 L 376 122 L 374 122 L 374 123 L 372 123 L 372 124 L 371 124 L 371 125 L 369 125 L 369 126 L 368 126 L 368 127 L 367 127 L 367 128 L 365 128 L 365 129 L 364 129 L 364 130 L 362 130 L 362 131 L 361 131 L 361 132 L 359 132 L 359 133 L 358 133 L 358 134 L 356 134 L 356 135 L 355 135 L 355 136 L 353 136 L 353 137 L 352 137 L 352 138 L 350 138 L 350 139 L 349 139 L 349 140 L 347 140 L 347 141 L 346 141 L 346 142 L 344 142 L 344 143 L 343 143 L 343 144 L 341 144 L 341 145 L 340 145 L 340 146 L 338 146 L 338 147 L 337 147 L 337 148 L 336 148 L 336 149 L 334 149 L 334 150 L 333 150 L 333 151 L 332 151 L 332 152 L 330 152 L 330 153 L 329 153 L 329 154 L 328 154 L 328 155 L 326 155 L 326 156 L 325 156 L 325 157 L 324 157 L 324 158 L 322 158 L 322 159 L 321 159 L 321 160 L 320 160 L 320 161 L 318 161 L 318 162 L 317 162 L 317 163 L 316 163 L 316 164 L 314 164 L 314 165 L 313 165 L 313 166 L 312 166 L 312 167 L 310 167 L 310 168 L 309 168 L 309 169 L 308 169 L 308 170 L 306 170 L 306 171 L 305 171 L 305 172 L 304 172 L 304 173 L 302 173 L 302 174 L 301 174 L 301 175 L 300 175 L 300 176 L 299 176 L 299 177 L 298 177 L 298 178 L 296 178 L 296 179 L 295 179 L 295 180 L 294 180 L 294 181 L 293 181 L 293 182 L 292 182 L 292 183 L 290 183 L 290 184 L 289 184 L 289 185 L 288 185 L 288 186 L 287 186 L 287 187 L 285 187 L 285 188 L 284 188 L 284 189 L 283 189 L 283 190 L 282 190 L 282 191 L 281 191 L 281 192 L 279 192 L 279 193 L 278 193 L 278 194 L 277 194 L 277 195 L 276 195 L 276 196 L 275 196 L 275 197 L 274 197 L 274 198 L 273 198 L 273 199 L 272 199 L 272 200 L 270 200 L 270 201 L 269 201 L 269 202 L 268 202 L 268 203 L 267 203 L 267 204 L 266 204 L 266 205 L 265 205 L 265 206 L 264 206 L 264 207 L 263 207 L 263 208 L 262 208 L 262 209 L 260 209 L 260 210 L 259 210 L 259 211 L 258 211 L 258 212 L 257 212 L 257 213 L 256 213 L 256 214 L 255 214 L 255 215 L 254 215 L 254 216 L 253 216 L 253 217 L 252 217 L 252 218 L 251 218 L 251 219 L 250 219 L 250 220 L 249 220 L 249 221 L 248 221 L 248 222 L 247 222 L 247 223 L 246 223 L 246 224 L 245 224 L 245 225 L 244 225 L 244 226 L 243 226 L 243 227 L 241 227 L 241 229 L 240 229 L 240 230 L 239 230 L 239 231 L 238 231 L 238 232 L 237 232 L 237 233 L 236 233 L 236 234 L 235 234 L 235 235 L 234 235 L 234 236 L 233 236 L 233 237 L 232 237 L 232 238 L 231 238 L 231 239 L 230 239 L 230 240 L 229 240 L 229 241 L 228 241 L 228 242 L 227 242 L 227 243 L 226 243 L 226 244 L 225 244 L 225 245 L 224 245 L 224 246 L 223 246 L 223 247 L 222 247 L 222 248 L 221 248 L 221 249 L 220 249 L 220 250 L 219 250 L 219 251 L 218 251 L 218 252 L 217 252 L 217 253 L 216 253 L 216 254 L 215 254 L 215 255 L 214 255 L 214 257 L 213 257 L 213 258 L 212 258 L 212 259 L 211 259 L 211 260 L 210 260 L 210 261 L 209 261 L 209 262 L 208 262 L 208 263 L 207 263 L 207 264 L 206 264 L 206 266 L 205 266 L 205 267 L 204 267 L 204 268 L 203 268 L 203 269 L 202 269 L 202 270 L 201 270 L 201 271 L 200 271 L 200 273 L 199 273 L 199 274 L 198 274 L 198 275 L 197 275 L 197 276 L 196 276 L 196 277 L 195 277 L 195 278 L 194 278 L 194 279 L 193 279 L 193 281 L 192 281 L 192 282 L 191 282 L 191 283 L 190 283 L 190 284 L 189 284 L 189 285 L 188 285 L 188 286 L 187 286 L 187 287 L 186 287 L 186 289 L 185 289 L 185 290 L 184 290 L 184 291 L 183 291 L 183 292 L 182 292 L 182 294 L 181 294 L 181 295 L 180 295 L 180 296 L 179 296 L 179 297 L 178 297 L 178 299 L 177 299 L 177 300 L 176 300 L 176 301 L 175 301 L 175 303 L 174 303 L 174 304 L 173 304 L 173 305 L 172 305 L 172 306 L 171 306 L 171 308 L 170 308 L 170 309 L 169 309 L 169 310 L 168 310 L 168 312 L 167 312 L 167 313 L 166 313 L 166 314 L 165 314 L 165 315 L 164 315 L 164 317 L 163 317 L 163 318 L 162 318 L 162 319 L 161 319 L 161 321 L 160 321 L 160 322 L 159 322 L 159 323 L 158 323 L 158 325 L 157 325 L 157 326 L 156 326 L 156 327 L 155 327 L 155 329 L 154 329 L 154 330 L 153 330 L 153 332 L 152 332 L 152 333 L 151 333 L 151 335 L 150 335 L 150 336 L 149 336 L 149 337 L 148 337 L 148 339 L 147 339 L 147 340 L 146 340 L 146 342 L 145 342 L 145 343 L 144 343 L 144 345 L 143 345 L 143 346 L 142 346 L 142 347 L 141 347 L 141 349 L 140 349 L 140 350 L 139 350 L 139 352 L 138 352 L 138 353 L 137 353 L 137 355 L 136 355 L 136 356 L 135 356 L 135 358 L 134 358 L 134 359 L 133 359 L 133 361 L 132 361 L 132 362 L 131 362 L 131 364 L 130 364 L 130 365 L 129 365 L 129 367 L 128 367 L 128 369 L 127 369 L 127 370 L 126 370 L 126 372 L 125 372 L 125 373 L 124 373 L 124 375 L 123 375 L 123 377 L 122 377 L 122 378 L 121 378 L 121 380 L 120 380 L 120 381 L 119 381 L 119 383 L 118 383 L 118 385 L 117 385 L 117 386 L 116 386 L 116 388 L 115 388 L 115 390 L 114 390 L 114 391 L 113 391 L 113 393 L 112 393 L 112 394 L 111 394 L 111 396 L 110 396 L 110 398 L 109 398 L 109 400 L 108 400 L 108 401 L 107 401 L 107 403 L 106 403 L 106 405 L 105 405 L 105 407 L 104 407 L 104 409 L 103 409 L 103 411 L 102 411 L 102 412 L 101 412 L 101 414 L 100 414 L 100 416 L 99 416 L 99 418 L 98 418 L 98 420 L 97 420 L 97 421 L 96 421 L 96 423 L 95 423 L 95 425 L 94 425 L 94 427 L 93 427 L 93 429 L 92 429 L 92 430 L 91 430 L 91 432 L 90 432 L 90 434 L 89 434 L 89 436 L 88 436 L 88 438 L 87 438 L 87 440 L 86 440 L 86 442 L 85 442 L 85 444 L 84 444 L 84 446 L 83 446 L 83 448 L 82 448 L 82 450 L 81 450 L 81 452 L 80 452 L 80 454 L 79 454 L 79 456 L 78 456 L 78 458 L 77 458 L 77 460 L 76 460 L 76 462 L 75 462 L 75 465 L 74 465 L 74 467 L 73 467 L 73 469 L 72 469 L 72 471 L 71 471 L 71 473 L 70 473 L 70 476 L 69 476 L 69 478 L 68 478 L 68 480 L 67 480 L 67 482 L 66 482 L 66 485 L 65 485 L 65 487 L 64 487 L 64 490 L 63 490 L 63 492 L 62 492 L 62 495 L 61 495 L 61 497 L 60 497 L 60 500 L 59 500 L 59 502 L 58 502 L 58 504 L 57 504 L 57 507 L 56 507 L 56 509 L 55 509 L 55 512 L 54 512 L 54 515 L 53 515 L 53 518 L 52 518 L 52 520 L 51 520 L 51 523 L 50 523 L 50 526 L 49 526 L 49 529 L 48 529 L 48 531 L 47 531 L 47 534 L 46 534 L 46 537 L 45 537 L 45 540 L 44 540 L 44 543 L 43 543 L 43 545 L 42 545 L 42 548 L 41 548 L 41 551 L 40 551 L 40 554 L 39 554 L 39 558 L 38 558 L 38 561 L 37 561 L 37 564 L 36 564 L 36 568 L 35 568 L 35 571 L 34 571 L 34 574 L 33 574 L 33 578 L 32 578 L 32 581 L 31 581 L 31 584 L 30 584 L 30 588 L 29 588 L 29 591 L 28 591 L 28 595 L 27 595 L 27 599 L 26 599 L 26 603 L 25 603 L 25 607 L 24 607 L 24 611 L 23 611 L 23 616 L 22 616 L 22 620 L 21 620 L 21 624 L 20 624 L 20 628 L 19 628 L 19 632 L 18 632 L 18 637 L 17 637 L 17 642 L 16 642 L 16 647 L 15 647 L 15 653 L 14 653 L 14 658 L 13 658 L 13 663 L 12 663 L 12 669 L 11 669 L 11 674 L 10 674 L 10 680 L 9 680 L 9 688 L 8 688 L 8 695 L 7 695 L 7 702 L 6 702 L 6 710 L 5 710 L 5 717 L 4 717 L 4 728 L 3 728 L 3 741 L 2 741 L 2 753 L 1 753 L 1 768 L 0 768 L 0 845 L 1 845 L 1 860 L 2 860 L 2 873 L 3 873 L 3 885 L 4 885 L 4 896 L 5 896 L 5 903 L 6 903 L 6 911 L 7 911 L 7 918 L 8 918 L 8 926 L 9 926 L 9 934 L 10 934 L 10 939 L 11 939 L 11 945 L 12 945 L 12 950 L 13 950 L 13 956 L 14 956 L 14 961 L 15 961 L 15 966 L 16 966 L 16 972 L 17 972 L 17 977 L 18 977 L 18 981 L 19 981 L 19 986 L 20 986 L 20 990 L 21 990 L 21 994 L 22 994 L 22 998 L 23 998 L 23 1002 L 24 1002 L 24 1006 L 25 1006 L 25 1011 L 26 1011 L 26 1015 L 27 1015 L 27 1019 L 28 1019 L 28 1022 L 29 1022 L 29 1026 L 30 1026 L 30 1029 L 31 1029 L 31 1033 L 32 1033 L 32 1036 L 33 1036 L 33 1039 L 34 1039 L 34 1043 L 35 1043 L 35 1046 L 36 1046 L 36 1049 L 37 1049 L 37 1053 L 38 1053 L 38 1056 L 39 1056 L 39 1059 L 40 1059 L 40 1063 L 41 1063 L 41 1065 L 42 1065 L 42 1068 L 43 1068 L 43 1071 L 44 1071 L 44 1074 L 45 1074 L 45 1077 L 46 1077 L 46 1079 L 47 1079 L 47 1082 L 48 1082 L 48 1085 L 49 1085 L 49 1088 L 50 1088 L 50 1091 L 51 1091 L 51 1093 L 52 1093 L 52 1096 L 53 1096 L 53 1099 L 54 1099 L 54 1102 L 55 1102 L 55 1104 L 56 1104 L 56 1107 L 57 1107 L 57 1109 L 58 1109 L 58 1112 L 59 1112 L 59 1114 L 60 1114 L 60 1117 L 61 1117 L 61 1119 L 62 1119 L 62 1121 L 63 1121 L 63 1124 L 64 1124 L 64 1126 L 65 1126 L 65 1129 L 66 1129 L 66 1131 L 67 1131 L 67 1134 L 68 1134 L 68 1136 L 69 1136 L 69 1138 L 70 1138 L 70 1140 L 71 1140 L 71 1142 L 72 1142 L 72 1145 L 73 1145 L 73 1147 L 74 1147 L 74 1149 L 75 1149 L 75 1151 L 76 1151 L 76 1153 L 77 1153 L 77 1155 L 78 1155 L 78 1157 L 79 1157 L 79 1159 L 80 1159 L 80 1161 L 81 1161 L 81 1163 L 82 1163 L 82 1165 L 83 1165 L 83 1167 L 84 1167 L 84 1169 L 85 1169 L 85 1171 L 86 1171 L 86 1173 L 87 1173 L 87 1175 L 88 1175 L 88 1177 L 89 1177 L 89 1179 L 90 1179 L 90 1181 L 91 1181 L 91 1183 L 92 1183 L 92 1185 L 93 1185 L 93 1187 L 94 1187 L 94 1189 L 95 1189 L 95 1190 L 96 1190 L 96 1192 L 97 1192 L 97 1194 L 98 1194 L 98 1196 L 99 1196 L 99 1198 L 100 1198 L 100 1200 L 101 1200 L 101 1201 L 102 1201 L 102 1203 L 103 1203 L 103 1205 L 104 1205 L 104 1207 L 105 1207 L 105 1209 L 106 1209 L 106 1210 L 107 1210 L 107 1212 L 108 1212 L 108 1214 L 109 1214 L 109 1216 L 110 1216 L 110 1218 L 111 1218 L 111 1219 L 112 1219 L 112 1221 L 113 1221 L 113 1223 L 114 1223 L 114 1224 L 115 1224 L 115 1226 L 116 1226 L 116 1227 L 117 1227 L 117 1229 L 118 1229 L 118 1231 L 119 1231 L 119 1232 L 120 1232 L 120 1234 L 121 1234 L 121 1235 L 122 1235 L 122 1237 L 123 1237 L 123 1239 L 124 1239 L 124 1240 L 125 1240 L 125 1242 L 126 1242 L 126 1243 L 127 1243 L 127 1245 L 128 1245 L 128 1247 L 129 1247 L 129 1248 L 130 1248 L 130 1250 L 131 1250 L 131 1251 L 132 1251 L 132 1253 L 133 1253 L 133 1255 L 134 1255 L 134 1256 L 135 1256 L 135 1258 L 136 1258 L 136 1259 L 137 1259 L 137 1260 L 138 1260 L 138 1262 L 139 1262 L 139 1263 L 140 1263 L 140 1265 L 141 1265 L 141 1266 L 142 1266 L 142 1268 L 143 1268 L 143 1269 L 144 1269 L 144 1270 L 145 1270 L 145 1272 L 146 1272 L 146 1273 L 147 1273 L 147 1275 L 148 1275 L 148 1276 L 149 1276 L 149 1278 L 150 1278 L 150 1279 L 151 1279 L 151 1281 L 152 1281 L 152 1282 L 153 1282 L 153 1283 L 154 1283 L 154 1285 L 155 1285 L 155 1286 L 156 1286 L 156 1288 L 157 1288 L 157 1289 L 158 1289 L 158 1290 L 159 1290 L 159 1292 L 160 1292 L 160 1293 L 161 1293 L 161 1294 L 162 1294 L 162 1296 L 163 1296 L 163 1297 L 164 1297 L 164 1298 L 165 1298 L 165 1299 L 166 1299 L 166 1301 L 167 1301 L 167 1302 L 168 1302 L 168 1303 L 169 1303 L 169 1305 L 170 1305 L 170 1306 L 171 1306 L 171 1307 L 172 1307 L 172 1308 L 173 1308 L 173 1310 L 174 1310 L 174 1311 L 175 1311 L 175 1312 L 176 1312 L 176 1314 L 177 1314 L 177 1315 L 178 1315 L 178 1316 L 179 1316 L 179 1317 L 180 1317 L 180 1319 L 181 1319 L 181 1320 L 182 1320 L 182 1321 L 183 1321 L 183 1323 L 184 1323 L 184 1324 L 185 1324 L 185 1325 L 186 1325 L 186 1326 L 187 1326 L 187 1327 L 188 1327 L 188 1328 L 189 1328 L 189 1330 L 190 1330 L 190 1331 L 191 1331 L 191 1332 L 192 1332 L 192 1333 L 193 1333 L 193 1334 L 194 1334 L 194 1335 L 195 1335 L 195 1337 L 196 1337 L 196 1338 L 197 1338 L 197 1339 L 198 1339 L 198 1340 L 199 1340 L 199 1341 L 200 1341 L 200 1342 L 201 1342 L 201 1343 L 202 1343 L 202 1345 L 203 1345 L 203 1346 L 204 1346 L 204 1347 L 205 1347 L 205 1348 L 206 1348 L 206 1349 L 207 1349 L 207 1350 L 208 1350 L 208 1352 L 209 1352 L 209 1353 L 210 1353 L 210 1354 L 211 1354 L 211 1355 L 212 1355 L 212 1356 L 213 1356 L 213 1357 L 214 1357 L 214 1358 L 215 1358 L 215 1359 L 216 1359 L 216 1360 L 217 1360 L 217 1361 L 218 1361 L 218 1362 L 219 1362 L 219 1363 L 220 1363 L 220 1364 L 221 1364 L 221 1365 L 222 1365 L 222 1366 L 223 1366 L 223 1367 L 224 1367 L 224 1368 L 225 1368 L 225 1370 L 226 1370 L 226 1371 L 227 1371 L 227 1372 L 228 1372 L 228 1373 L 229 1373 L 229 1374 L 230 1374 L 230 1375 L 231 1375 L 231 1376 L 232 1376 L 232 1377 L 233 1377 L 233 1378 L 234 1378 L 234 1379 L 235 1379 L 235 1380 L 236 1380 L 236 1381 L 237 1381 L 237 1382 L 238 1382 L 238 1383 L 239 1383 L 239 1384 L 240 1384 L 240 1385 L 241 1385 L 241 1386 L 242 1386 L 242 1387 L 243 1387 L 243 1388 L 244 1388 L 244 1389 L 245 1389 L 245 1390 L 246 1390 L 246 1391 L 247 1391 L 247 1392 L 248 1392 L 248 1393 L 249 1393 L 249 1394 L 250 1394 L 250 1395 L 251 1395 L 251 1396 L 252 1396 L 252 1397 L 254 1397 L 254 1398 L 255 1398 L 255 1399 L 256 1399 L 256 1400 L 257 1400 L 257 1401 L 258 1401 L 258 1402 L 259 1402 L 259 1403 L 260 1403 L 260 1404 L 261 1404 L 261 1405 L 262 1405 L 262 1406 L 263 1406 L 263 1407 L 264 1407 L 264 1408 L 265 1408 L 265 1409 L 266 1409 L 266 1410 L 268 1410 L 268 1411 L 269 1411 L 269 1412 L 270 1412 L 270 1413 L 271 1413 L 271 1414 L 272 1414 L 272 1415 L 273 1415 L 273 1416 L 274 1416 L 274 1417 L 275 1417 L 275 1418 L 277 1418 L 277 1419 L 278 1419 L 278 1420 L 279 1420 L 279 1421 L 280 1421 L 280 1422 L 281 1422 L 281 1423 L 282 1423 L 282 1424 L 284 1424 L 284 1425 L 285 1425 L 285 1426 L 286 1426 L 286 1427 L 287 1427 L 287 1428 L 288 1428 L 288 1429 L 290 1429 L 290 1430 L 291 1430 L 291 1431 L 292 1431 L 292 1432 L 293 1432 L 293 1433 L 295 1433 L 295 1434 L 296 1434 L 296 1435 L 297 1435 L 297 1436 L 298 1436 L 298 1437 L 299 1437 L 299 1438 L 301 1438 L 301 1439 L 302 1439 L 302 1440 L 303 1440 L 303 1441 L 304 1441 L 304 1442 L 306 1442 L 306 1443 L 307 1443 L 307 1444 L 308 1444 L 308 1445 L 310 1445 L 310 1446 L 311 1446 L 311 1447 L 312 1447 L 312 1448 L 314 1448 L 314 1449 L 315 1449 L 315 1450 L 316 1450 L 316 1451 L 317 1451 L 317 1452 L 319 1452 L 319 1453 L 320 1453 L 320 1454 L 321 1454 L 321 1455 L 323 1455 L 323 1456 L 324 1456 L 324 1457 L 325 1457 L 325 1458 L 327 1458 L 327 1459 L 328 1459 L 328 1460 L 329 1460 L 329 1461 L 331 1461 L 331 1462 L 332 1462 L 332 1463 L 333 1463 L 333 1464 L 335 1464 L 335 1465 L 336 1465 L 336 1466 L 337 1466 L 337 1467 L 339 1467 L 339 1468 L 340 1468 L 340 1469 L 342 1469 L 342 1470 L 343 1470 L 343 1471 L 345 1471 L 345 1472 L 346 1472 L 346 1473 L 348 1473 L 348 1474 L 349 1474 L 349 1475 L 351 1475 L 351 1476 L 352 1476 L 352 1477 L 354 1477 L 354 1478 L 355 1478 L 355 1479 L 357 1479 L 357 1480 L 358 1480 L 358 1481 L 360 1481 L 360 1482 L 361 1482 L 361 1483 L 363 1483 L 363 1484 L 364 1484 L 364 1485 L 366 1485 L 366 1486 L 367 1486 L 367 1487 L 369 1487 L 369 1488 L 370 1488 L 370 1489 L 372 1489 L 372 1490 L 373 1490 L 373 1491 L 375 1491 L 375 1492 L 376 1492 L 376 1493 L 378 1493 L 378 1494 L 380 1494 L 380 1495 L 381 1495 L 381 1496 L 383 1496 L 383 1497 L 385 1497 L 385 1498 L 387 1498 L 387 1499 L 388 1499 L 388 1500 L 390 1500 L 390 1501 L 392 1501 L 392 1502 L 393 1502 L 393 1503 L 395 1503 L 395 1504 L 397 1504 L 397 1505 L 398 1505 L 398 1506 L 400 1506 L 400 1507 L 402 1507 L 402 1508 L 403 1508 L 403 1509 L 405 1509 L 405 1510 L 407 1510 L 407 1511 L 408 1511 L 408 1512 L 410 1512 L 410 1513 L 412 1513 L 412 1514 L 414 1514 L 414 1515 L 416 1515 L 416 1516 L 418 1516 L 418 1517 L 420 1517 L 420 1518 L 421 1518 L 421 1519 L 423 1519 L 423 1520 L 425 1520 L 425 1521 L 427 1521 L 427 1522 L 429 1522 L 429 1523 L 431 1523 L 431 1524 L 433 1524 L 433 1525 L 435 1525 L 435 1526 L 437 1526 L 437 1527 L 438 1527 L 438 1528 L 440 1528 L 440 1529 L 442 1529 L 442 1530 L 444 1530 L 444 1531 L 446 1531 L 446 1532 L 448 1532 L 448 1533 L 450 1533 L 450 1534 L 452 1534 L 452 1535 L 455 1535 L 455 1536 L 457 1536 L 457 1537 L 459 1537 L 459 1538 L 461 1538 L 461 1539 L 463 1539 L 463 1540 L 465 1540 L 465 1541 L 468 1541 L 468 1542 L 470 1542 L 470 1543 L 472 1543 L 472 1544 L 474 1544 L 474 1545 L 476 1545 L 476 1546 L 478 1546 L 478 1547 L 480 1547 L 480 1548 L 483 1548 L 483 1549 L 485 1549 L 485 1550 L 488 1550 L 488 1551 L 490 1551 L 490 1552 L 492 1552 L 492 1553 L 495 1553 L 495 1554 L 497 1554 L 497 1555 L 500 1555 L 500 1556 L 502 1556 L 502 1557 L 505 1557 L 505 1558 L 507 1558 L 507 1559 L 510 1559 L 510 1560 L 512 1560 L 512 1561 L 515 1561 L 515 1562 L 517 1562 L 517 1563 L 520 1563 L 520 1564 L 522 1564 L 522 1565 L 525 1565 L 525 1566 L 528 1566 L 528 1567 L 531 1567 L 531 1568 L 534 1568 L 534 1569 L 537 1569 L 537 1570 L 539 1570 L 539 1571 L 542 1571 L 542 1572 L 545 1572 L 545 1573 L 548 1573 L 548 1574 L 551 1574 L 551 1575 L 554 1575 L 554 1576 L 557 1576 L 557 1577 L 560 1577 L 560 1578 L 563 1578 L 563 1579 L 567 1579 L 567 1580 L 570 1580 L 570 1581 L 573 1581 L 573 1582 L 577 1582 L 577 1583 L 581 1583 L 581 1584 L 584 1584 L 584 1585 L 588 1585 L 588 1586 L 592 1586 L 592 1587 L 595 1587 L 595 1588 L 599 1588 L 599 1589 L 603 1589 L 603 1590 L 607 1590 L 607 1591 L 612 1591 L 612 1592 L 616 1592 L 616 1593 L 620 1593 L 620 1594 L 625 1594 L 625 1595 L 629 1595 L 629 1596 L 633 1596 L 633 1597 L 638 1597 L 638 1598 L 643 1598 L 643 1599 L 649 1599 L 649 1600 L 654 1600 L 654 1601 L 660 1601 L 660 1602 L 666 1602 L 666 1603 L 671 1603 L 671 1604 L 677 1604 L 677 1605 L 684 1605 L 684 1606 L 692 1606 L 692 1607 L 700 1607 L 700 1608 L 708 1608 L 708 1609 L 716 1609 L 716 1610 L 728 1610 L 728 1611 L 741 1611 L 741 1612 L 755 1612 L 755 1613 L 847 1613 L 847 1612 L 863 1612 L 863 1611 L 876 1611 L 876 1610 L 886 1610 L 886 1609 L 894 1609 L 894 1608 L 902 1608 L 902 1607 L 909 1607 L 909 1606 L 917 1606 L 917 1605 L 923 1605 L 923 1604 L 929 1604 L 929 1603 L 935 1603 L 935 1602 L 940 1602 L 940 1601 L 946 1601 L 946 1600 L 952 1600 L 952 1599 L 957 1599 L 957 1598 L 962 1598 L 962 1597 L 966 1597 L 966 1596 L 971 1596 L 971 1595 L 975 1595 L 975 1594 L 979 1594 L 979 1593 L 984 1593 L 984 1592 L 988 1592 L 988 1591 L 993 1591 L 993 1590 L 997 1590 L 997 1589 L 1001 1589 L 1001 1588 L 1004 1588 L 1004 1587 L 1008 1587 L 1008 1586 L 1011 1586 L 1011 1585 L 1015 1585 L 1015 1584 L 1018 1584 L 1018 1583 L 1022 1583 L 1022 1582 L 1026 1582 L 1026 1581 L 1029 1581 L 1029 1580 L 1033 1580 L 1033 1579 L 1036 1579 L 1036 1578 L 1039 1578 L 1039 1577 L 1042 1577 L 1042 1576 L 1045 1576 L 1045 1575 L 1048 1575 L 1048 1574 L 1051 1574 L 1051 1573 L 1054 1573 L 1054 1572 L 1057 1572 L 1057 1571 L 1060 1571 L 1060 1570 L 1063 1570 L 1063 1569 L 1066 1569 L 1066 1568 L 1069 1568 L 1069 1567 L 1072 1567 L 1072 1566 L 1074 1566 L 1074 1565 L 1077 1565 L 1077 1564 L 1080 1564 L 1080 1563 L 1082 1563 L 1082 1562 L 1085 1562 L 1085 1561 L 1087 1561 L 1087 1560 L 1090 1560 L 1090 1559 L 1092 1559 L 1092 1558 L 1095 1558 L 1095 1557 L 1098 1557 L 1098 1556 L 1100 1556 L 1100 1555 L 1103 1555 L 1103 1554 L 1105 1554 L 1105 1553 L 1108 1553 L 1108 1552 L 1110 1552 L 1110 1551 L 1112 1551 L 1112 1550 L 1114 1550 L 1114 1549 L 1117 1549 L 1117 1548 L 1119 1548 L 1119 1547 L 1121 1547 L 1121 1546 L 1123 1546 L 1123 1545 L 1126 1545 L 1126 1544 L 1128 1544 L 1128 1543 L 1130 1543 L 1130 1542 L 1132 1542 L 1132 1541 L 1135 1541 L 1135 1540 L 1137 1540 L 1137 1539 L 1139 1539 L 1139 1538 L 1141 1538 L 1141 1537 L 1144 1537 L 1144 1536 L 1146 1536 L 1146 1535 L 1148 1535 L 1148 1534 L 1150 1534 L 1150 1533 L 1152 1533 L 1152 1532 L 1154 1532 L 1154 1531 L 1156 1531 L 1156 1530 L 1158 1530 L 1158 1529 L 1160 1529 L 1160 1528 L 1162 1528 L 1162 1527 L 1164 1527 L 1164 1526 L 1166 1526 L 1166 1525 L 1168 1525 L 1168 1524 L 1170 1524 L 1170 1523 L 1172 1523 L 1172 1522 L 1173 1522 L 1173 1521 L 1175 1521 L 1175 1520 L 1177 1520 L 1177 1519 L 1179 1519 L 1179 1518 L 1181 1518 L 1181 1517 L 1183 1517 L 1183 1516 L 1185 1516 L 1185 1515 L 1186 1515 L 1186 1514 L 1188 1514 L 1188 1513 L 1190 1513 L 1190 1512 L 1192 1512 L 1192 1511 L 1193 1511 L 1193 1510 L 1195 1510 L 1195 1509 L 1197 1509 L 1197 1508 L 1199 1508 L 1199 1507 L 1200 1507 L 1200 1506 L 1202 1506 L 1202 1505 L 1204 1505 L 1204 1504 L 1206 1504 L 1206 1503 L 1207 1503 L 1207 1502 L 1209 1502 L 1209 1501 L 1211 1501 L 1211 1500 L 1212 1500 L 1212 1499 L 1214 1499 L 1214 1498 L 1216 1498 L 1216 1497 L 1217 1497 L 1217 1496 L 1219 1496 L 1219 1495 L 1220 1495 L 1220 1494 L 1222 1494 L 1222 1493 L 1224 1493 L 1224 1492 L 1225 1492 L 1225 1491 L 1227 1491 L 1227 1490 L 1228 1490 L 1228 1489 L 1230 1489 L 1230 1488 L 1232 1488 L 1232 1487 L 1233 1487 L 1233 1486 L 1235 1486 L 1235 1485 L 1236 1485 L 1236 1484 L 1238 1484 L 1238 1483 L 1240 1483 L 1240 1482 L 1241 1482 L 1241 1481 L 1243 1481 L 1243 1480 L 1244 1480 L 1244 1479 L 1246 1479 L 1246 1478 L 1247 1478 L 1247 1477 L 1248 1477 L 1248 1476 L 1250 1476 L 1250 1475 L 1251 1475 L 1251 1474 L 1253 1474 L 1253 1473 L 1254 1473 L 1254 1472 L 1256 1472 L 1256 1471 L 1257 1471 L 1257 1470 L 1259 1470 L 1259 1469 L 1260 1469 L 1260 1468 L 1261 1468 L 1261 1467 L 1263 1467 L 1263 1466 L 1264 1466 L 1264 1465 L 1266 1465 L 1266 1464 L 1267 1464 L 1267 1463 L 1269 1463 L 1269 1462 L 1270 1462 L 1270 1461 L 1272 1461 L 1272 1460 L 1273 1460 L 1273 1459 L 1274 1459 L 1274 1458 L 1276 1458 L 1276 1457 L 1277 1457 L 1277 1456 L 1278 1456 L 1278 1455 L 1279 1455 L 1279 1454 L 1281 1454 L 1281 1453 L 1282 1453 L 1282 1452 L 1283 1452 L 1283 1451 L 1285 1451 L 1285 1450 L 1286 1450 L 1286 1449 L 1287 1449 L 1287 1448 L 1289 1448 L 1289 1447 L 1290 1447 L 1290 1446 L 1291 1446 L 1291 1445 L 1293 1445 L 1293 1444 L 1294 1444 L 1294 1443 L 1295 1443 L 1295 1442 L 1296 1442 L 1296 1441 L 1298 1441 L 1298 1440 L 1299 1440 L 1299 1439 L 1300 1439 L 1300 1438 L 1302 1438 L 1302 1437 L 1303 1437 L 1303 1436 L 1304 1436 L 1304 1435 L 1305 1435 L 1305 1434 L 1307 1434 L 1307 1433 L 1308 1433 L 1308 1432 L 1309 1432 L 1309 1431 L 1310 1431 L 1310 1430 L 1311 1430 L 1311 1429 L 1312 1429 L 1312 1428 L 1314 1428 L 1314 1427 L 1315 1427 L 1315 1426 L 1316 1426 L 1316 1425 L 1317 1425 L 1317 1424 L 1318 1424 L 1318 1423 L 1320 1423 L 1320 1422 L 1321 1422 L 1321 1421 L 1322 1421 L 1322 1420 L 1323 1420 L 1323 1419 L 1324 1419 L 1324 1418 L 1326 1418 L 1326 1417 L 1327 1417 L 1327 1416 L 1328 1416 L 1328 1415 L 1329 1415 L 1329 1414 L 1330 1414 L 1330 1413 L 1331 1413 L 1331 1412 L 1333 1412 L 1333 1411 L 1334 1411 L 1334 1410 L 1335 1410 L 1335 1409 L 1336 1409 L 1336 1408 L 1337 1408 L 1337 1407 L 1338 1407 L 1338 1406 L 1339 1406 L 1339 1405 L 1340 1405 L 1340 1404 L 1341 1404 L 1341 1403 L 1342 1403 L 1342 1402 L 1343 1402 L 1343 1401 L 1345 1401 L 1345 1400 L 1346 1400 L 1346 1399 L 1347 1399 L 1347 1398 L 1348 1398 L 1348 1397 L 1349 1397 L 1349 1396 L 1350 1396 L 1350 1395 L 1351 1395 L 1351 1394 L 1352 1394 L 1352 1393 L 1353 1393 L 1353 1392 L 1354 1392 L 1354 1391 L 1355 1391 L 1355 1390 L 1357 1390 L 1357 1389 L 1358 1389 L 1358 1388 L 1359 1388 L 1359 1387 L 1360 1387 L 1360 1386 L 1361 1386 L 1361 1385 L 1362 1385 L 1362 1384 L 1363 1384 L 1363 1383 L 1364 1383 L 1364 1382 L 1365 1382 L 1365 1381 L 1366 1381 L 1366 1380 L 1367 1380 L 1367 1379 L 1368 1379 L 1368 1378 L 1369 1378 L 1369 1377 L 1370 1377 L 1370 1376 L 1371 1376 L 1371 1375 L 1372 1375 L 1372 1374 L 1373 1374 L 1373 1373 L 1374 1373 L 1374 1372 L 1375 1372 L 1375 1371 L 1376 1371 L 1376 1370 L 1377 1370 L 1377 1369 L 1378 1369 L 1378 1368 L 1379 1368 L 1379 1367 L 1380 1367 L 1380 1366 L 1381 1366 L 1381 1365 L 1382 1365 L 1382 1364 L 1383 1364 L 1383 1363 L 1384 1363 L 1384 1361 L 1385 1361 L 1385 1360 L 1386 1360 L 1386 1359 L 1387 1359 L 1387 1358 L 1388 1358 L 1388 1357 L 1389 1357 L 1389 1356 L 1390 1356 L 1390 1355 L 1391 1355 L 1391 1354 L 1392 1354 L 1392 1353 L 1393 1353 L 1393 1352 L 1394 1352 L 1394 1351 L 1395 1351 L 1395 1350 L 1396 1350 L 1396 1349 L 1397 1349 L 1397 1347 L 1398 1347 L 1398 1346 L 1399 1346 L 1399 1345 L 1400 1345 L 1400 1344 L 1401 1344 L 1401 1343 L 1402 1343 L 1402 1342 L 1403 1342 L 1403 1341 L 1404 1341 L 1404 1340 L 1405 1340 L 1405 1339 L 1406 1339 L 1406 1337 L 1407 1337 L 1407 1336 L 1408 1336 L 1408 1335 L 1409 1335 L 1409 1334 L 1410 1334 L 1410 1333 L 1411 1333 L 1411 1332 L 1412 1332 L 1412 1331 L 1413 1331 L 1413 1329 L 1414 1329 L 1414 1328 L 1415 1328 L 1415 1327 L 1416 1327 L 1416 1326 L 1417 1326 L 1417 1325 L 1418 1325 L 1418 1324 L 1419 1324 L 1419 1322 L 1420 1322 L 1420 1321 L 1421 1321 L 1421 1320 L 1422 1320 L 1422 1319 L 1423 1319 L 1423 1317 L 1424 1317 L 1424 1316 L 1425 1316 L 1425 1315 L 1426 1315 L 1426 1313 L 1427 1313 L 1427 1312 L 1428 1312 L 1428 1311 L 1429 1311 L 1429 1310 L 1430 1310 L 1430 1308 L 1431 1308 L 1431 1307 L 1432 1307 L 1432 1306 L 1433 1306 L 1433 1305 L 1434 1305 L 1434 1303 L 1435 1303 L 1435 1302 L 1436 1302 L 1436 1301 L 1437 1301 L 1437 1299 L 1438 1299 L 1438 1298 L 1439 1298 L 1439 1297 L 1440 1297 L 1440 1296 L 1441 1296 L 1441 1294 L 1442 1294 L 1442 1293 L 1443 1293 L 1443 1292 L 1444 1292 L 1444 1291 L 1445 1291 L 1445 1289 L 1446 1289 L 1446 1288 L 1447 1288 L 1447 1286 L 1448 1286 L 1448 1285 L 1449 1285 L 1449 1283 L 1450 1283 L 1450 1282 L 1451 1282 L 1451 1281 L 1452 1281 L 1452 1279 L 1453 1279 L 1453 1278 L 1454 1278 L 1454 1276 L 1455 1276 L 1455 1275 L 1456 1275 L 1456 1273 L 1457 1273 L 1457 1272 L 1458 1272 L 1458 1270 L 1459 1270 L 1459 1269 L 1460 1269 L 1460 1268 L 1461 1268 L 1461 1266 L 1462 1266 L 1462 1265 L 1463 1265 L 1463 1263 L 1464 1263 L 1464 1262 L 1465 1262 L 1465 1260 L 1466 1260 L 1466 1259 L 1467 1259 L 1467 1258 L 1468 1258 L 1468 1256 L 1469 1256 L 1469 1255 L 1470 1255 L 1470 1253 L 1471 1253 L 1471 1252 L 1472 1252 L 1472 1250 L 1473 1250 L 1473 1249 L 1474 1249 L 1474 1247 L 1475 1247 L 1475 1246 L 1476 1246 L 1476 1245 L 1477 1245 L 1477 1243 L 1478 1243 L 1478 1242 L 1479 1242 L 1479 1240 L 1480 1240 L 1480 1238 L 1481 1238 L 1481 1236 L 1482 1236 L 1482 1235 L 1483 1235 L 1483 1233 L 1484 1233 L 1484 1231 L 1485 1231 L 1485 1230 L 1486 1230 L 1486 1228 L 1487 1228 L 1487 1226 L 1488 1226 L 1488 1225 L 1489 1225 L 1489 1223 L 1490 1223 L 1490 1221 L 1491 1221 L 1491 1220 L 1492 1220 L 1492 1218 L 1493 1218 L 1493 1216 L 1494 1216 L 1494 1215 L 1495 1215 L 1495 1213 L 1496 1213 L 1496 1211 L 1497 1211 L 1497 1210 L 1498 1210 L 1498 1208 L 1499 1208 L 1499 1206 L 1500 1206 L 1500 1204 L 1501 1204 L 1501 1203 L 1502 1203 L 1502 1201 L 1503 1201 L 1503 1199 L 1504 1199 L 1504 1198 L 1505 1198 L 1505 1196 L 1506 1196 L 1506 1194 L 1507 1194 L 1507 1192 L 1508 1192 L 1508 1191 L 1509 1191 L 1509 1189 L 1510 1189 L 1510 1187 L 1511 1187 L 1511 1185 L 1512 1185 L 1512 1183 L 1513 1183 L 1513 1181 L 1514 1181 L 1514 1179 L 1515 1179 L 1515 1177 L 1516 1177 L 1516 1175 L 1517 1175 L 1517 1173 L 1518 1173 L 1518 1171 L 1519 1171 L 1519 1169 L 1520 1169 L 1520 1167 L 1521 1167 L 1521 1165 L 1522 1165 L 1522 1163 L 1523 1163 L 1523 1161 L 1524 1161 L 1524 1159 L 1525 1159 L 1525 1157 L 1526 1157 L 1526 1155 L 1527 1155 L 1527 1153 L 1528 1153 L 1528 1151 L 1529 1151 L 1529 1149 L 1530 1149 L 1530 1147 L 1531 1147 L 1531 1145 L 1532 1145 L 1532 1143 L 1533 1143 L 1533 1140 L 1534 1140 L 1534 1138 L 1535 1138 L 1535 1135 L 1536 1135 L 1536 1133 L 1537 1133 L 1537 1131 L 1538 1131 L 1538 1128 L 1539 1128 L 1539 1126 L 1540 1126 L 1540 1124 L 1541 1124 L 1541 1121 L 1542 1121 L 1542 1119 L 1543 1119 L 1543 1116 L 1544 1116 L 1544 1114 L 1545 1114 L 1545 1112 L 1546 1112 L 1546 1109 L 1547 1109 L 1547 1107 L 1548 1107 L 1548 1104 L 1549 1104 L 1549 1102 L 1550 1102 L 1550 1100 L 1551 1100 L 1551 1097 L 1552 1097 L 1552 1095 L 1553 1095 L 1553 1092 L 1554 1092 L 1554 1090 L 1555 1090 L 1555 1087 L 1556 1087 L 1556 1084 L 1557 1084 L 1557 1081 L 1558 1081 L 1558 1078 L 1559 1078 L 1559 1075 L 1560 1075 L 1560 1072 L 1561 1072 L 1561 1069 L 1562 1069 L 1562 1066 L 1563 1066 L 1563 1063 L 1564 1063 L 1564 1060 L 1565 1060 L 1565 1057 L 1566 1057 L 1566 1054 L 1567 1054 L 1567 1051 L 1568 1051 L 1568 1048 L 1569 1048 L 1569 1045 L 1570 1045 L 1570 1042 L 1571 1042 L 1571 1039 L 1572 1039 L 1572 1036 L 1573 1036 L 1573 1033 L 1574 1033 L 1574 1029 L 1575 1029 L 1575 1025 L 1576 1025 L 1576 1021 L 1577 1021 L 1577 1017 L 1578 1017 L 1578 1013 L 1579 1013 L 1579 1010 L 1580 1010 L 1580 1006 L 1581 1006 L 1581 1002 L 1582 1002 L 1582 998 L 1583 998 L 1583 994 L 1584 994 L 1584 991 L 1585 991 L 1585 987 L 1586 987 L 1586 983 L 1587 983 L 1587 978 L 1588 978 L 1588 973 L 1589 973 L 1589 968 L 1590 968 L 1590 963 L 1591 963 L 1591 958 L 1592 958 L 1592 953 L 1593 953 L 1593 948 L 1594 948 L 1594 943 L 1595 943 L 1595 937 L 1596 937 L 1596 931 L 1597 931 L 1597 926 L 1594 926 L 1594 929 L 1593 929 L 1593 934 L 1592 934 L 1592 939 L 1591 939 L 1591 943 L 1590 943 L 1590 948 L 1589 948 L 1589 952 L 1588 952 L 1588 957 L 1587 957 L 1587 961 L 1586 961 L 1586 965 L 1585 965 L 1585 969 L 1584 969 L 1584 973 L 1583 973 L 1583 976 L 1582 976 L 1582 980 L 1581 980 L 1581 983 L 1580 983 L 1580 987 L 1579 987 L 1579 990 L 1578 990 L 1578 994 L 1577 994 L 1577 997 L 1576 997 L 1576 1001 L 1575 1001 L 1575 1005 L 1574 1005 L 1574 1008 L 1573 1008 L 1573 1010 L 1572 1010 L 1572 1013 L 1571 1013 L 1571 1016 L 1570 1016 L 1570 1019 L 1569 1019 L 1569 1022 L 1568 1022 L 1568 1025 L 1567 1025 L 1567 1028 L 1566 1028 L 1566 1031 L 1565 1031 L 1565 1033 L 1564 1033 L 1564 1036 L 1563 1036 L 1563 1039 L 1562 1039 L 1562 1042 L 1561 1042 L 1561 1045 L 1560 1045 L 1560 1047 L 1559 1047 L 1559 1050 L 1558 1050 L 1558 1052 L 1557 1052 L 1557 1054 L 1556 1054 L 1556 1057 L 1555 1057 L 1555 1059 L 1554 1059 L 1554 1062 L 1553 1062 L 1553 1064 L 1552 1064 L 1552 1067 L 1551 1067 L 1551 1069 L 1550 1069 L 1550 1072 L 1549 1072 L 1549 1074 L 1548 1074 L 1548 1076 L 1547 1076 L 1547 1078 L 1546 1078 L 1546 1080 L 1545 1080 L 1545 1082 L 1544 1082 L 1544 1085 L 1543 1085 L 1543 1087 L 1542 1087 L 1542 1089 L 1541 1089 L 1541 1091 L 1540 1091 L 1540 1093 L 1539 1093 L 1539 1095 L 1538 1095 L 1538 1097 L 1537 1097 L 1537 1099 L 1536 1099 L 1536 1101 L 1535 1101 L 1535 1103 L 1534 1103 L 1534 1105 L 1533 1105 L 1533 1107 L 1532 1107 L 1532 1109 L 1531 1109 L 1531 1111 L 1530 1111 L 1530 1113 L 1529 1113 L 1529 1115 L 1528 1115 L 1528 1116 L 1527 1116 L 1527 1118 L 1526 1118 L 1526 1120 L 1525 1120 L 1525 1122 L 1524 1122 L 1524 1123 L 1523 1123 L 1523 1125 L 1522 1125 L 1522 1127 L 1521 1127 L 1521 1129 L 1520 1129 L 1520 1131 L 1519 1131 L 1519 1132 L 1518 1132 L 1518 1134 L 1517 1134 L 1517 1136 L 1516 1136 L 1516 1138 L 1515 1138 L 1515 1139 L 1514 1139 L 1514 1141 L 1513 1141 L 1513 1143 L 1512 1143 L 1512 1145 L 1511 1145 L 1511 1146 L 1510 1146 L 1510 1148 L 1509 1148 L 1509 1149 L 1508 1149 L 1508 1151 L 1507 1151 L 1507 1153 L 1506 1153 L 1506 1154 L 1505 1154 L 1505 1156 L 1504 1156 L 1504 1157 L 1503 1157 L 1503 1159 L 1502 1159 L 1502 1160 L 1501 1160 L 1501 1162 L 1500 1162 L 1500 1164 L 1499 1164 L 1499 1165 L 1498 1165 L 1498 1167 L 1497 1167 L 1497 1168 L 1496 1168 L 1496 1170 L 1495 1170 L 1495 1171 L 1494 1171 L 1494 1173 L 1493 1173 L 1493 1174 L 1492 1174 L 1492 1176 L 1491 1176 L 1491 1177 L 1490 1177 L 1490 1179 L 1489 1179 L 1489 1180 L 1488 1180 L 1488 1181 L 1487 1181 L 1487 1183 L 1486 1183 L 1486 1184 L 1485 1184 L 1485 1186 L 1484 1186 L 1484 1187 L 1483 1187 L 1483 1188 L 1482 1188 L 1482 1190 L 1481 1190 L 1481 1191 L 1480 1191 L 1480 1193 L 1479 1193 L 1479 1194 L 1478 1194 L 1478 1196 L 1477 1196 L 1477 1197 L 1476 1197 L 1476 1198 L 1475 1198 L 1475 1200 L 1474 1200 L 1474 1201 L 1473 1201 L 1473 1202 L 1472 1202 L 1472 1204 L 1471 1204 L 1471 1205 L 1470 1205 L 1470 1206 L 1469 1206 L 1469 1208 L 1468 1208 L 1468 1209 L 1467 1209 L 1467 1210 L 1466 1210 L 1466 1211 L 1465 1211 L 1465 1213 L 1464 1213 L 1464 1214 L 1463 1214 L 1463 1215 L 1462 1215 L 1462 1216 L 1461 1216 L 1461 1218 L 1460 1218 L 1460 1219 L 1459 1219 L 1459 1220 L 1458 1220 L 1458 1221 L 1457 1221 L 1457 1223 L 1456 1223 L 1456 1224 L 1455 1224 L 1455 1225 L 1454 1225 L 1454 1226 L 1453 1226 L 1453 1228 L 1452 1228 L 1452 1229 L 1451 1229 L 1451 1230 L 1450 1230 L 1450 1231 L 1449 1231 L 1449 1232 L 1448 1232 L 1448 1233 L 1447 1233 L 1447 1235 L 1446 1235 L 1446 1236 L 1445 1236 L 1445 1237 L 1444 1237 L 1444 1238 L 1443 1238 L 1443 1239 L 1442 1239 L 1442 1240 L 1441 1240 L 1441 1241 L 1440 1241 L 1440 1243 L 1439 1243 L 1439 1244 L 1438 1244 L 1438 1245 L 1437 1245 L 1437 1246 L 1436 1246 L 1436 1247 L 1435 1247 L 1435 1248 L 1434 1248 L 1434 1249 L 1433 1249 L 1433 1250 L 1432 1250 L 1432 1252 L 1431 1252 L 1431 1253 L 1430 1253 L 1430 1254 L 1429 1254 L 1429 1255 L 1428 1255 L 1428 1256 L 1427 1256 L 1427 1257 L 1426 1257 L 1426 1258 L 1425 1258 L 1425 1259 L 1424 1259 L 1424 1260 L 1423 1260 L 1423 1261 L 1422 1261 L 1422 1262 L 1421 1262 L 1421 1263 L 1420 1263 L 1420 1264 L 1419 1264 L 1419 1265 L 1418 1265 L 1418 1266 L 1417 1266 L 1417 1267 L 1416 1267 L 1416 1268 L 1415 1268 L 1415 1269 L 1414 1269 L 1414 1270 L 1413 1270 L 1413 1271 L 1412 1271 L 1412 1272 L 1411 1272 L 1411 1273 L 1410 1273 L 1410 1274 L 1409 1274 L 1409 1275 L 1408 1275 L 1408 1276 L 1407 1276 L 1407 1277 L 1406 1277 L 1406 1278 L 1405 1278 L 1405 1279 L 1404 1279 L 1404 1280 L 1403 1280 L 1403 1281 L 1402 1281 L 1402 1282 L 1401 1282 L 1401 1283 L 1400 1283 L 1400 1284 L 1399 1284 L 1399 1285 L 1398 1285 L 1398 1286 L 1397 1286 L 1397 1287 L 1396 1287 L 1396 1288 L 1395 1288 L 1395 1289 L 1394 1289 L 1394 1290 L 1392 1290 L 1392 1291 L 1391 1291 L 1391 1292 L 1390 1292 L 1390 1293 L 1389 1293 L 1389 1294 L 1388 1294 L 1388 1295 L 1387 1295 L 1387 1296 L 1386 1296 L 1386 1297 L 1385 1297 L 1385 1298 L 1384 1298 L 1384 1299 L 1383 1299 L 1383 1300 L 1381 1300 L 1381 1301 L 1380 1301 L 1380 1302 L 1379 1302 L 1379 1303 L 1378 1303 L 1378 1304 L 1377 1304 L 1377 1305 L 1376 1305 L 1376 1306 L 1374 1306 L 1374 1307 L 1373 1307 L 1373 1308 L 1372 1308 L 1372 1309 L 1371 1309 L 1371 1310 L 1370 1310 L 1370 1311 L 1368 1311 L 1368 1312 L 1367 1312 L 1367 1313 L 1366 1313 L 1366 1314 L 1365 1314 L 1365 1315 L 1363 1315 L 1363 1316 L 1362 1316 L 1362 1317 L 1361 1317 L 1361 1318 L 1359 1318 L 1359 1319 L 1358 1319 L 1358 1320 L 1357 1320 L 1357 1321 L 1356 1321 L 1356 1322 L 1354 1322 L 1354 1323 L 1353 1323 L 1353 1324 L 1352 1324 L 1352 1325 L 1350 1325 L 1350 1326 L 1349 1326 L 1349 1327 L 1348 1327 L 1348 1328 L 1347 1328 L 1347 1329 L 1345 1329 L 1345 1330 L 1344 1330 L 1344 1331 L 1343 1331 L 1343 1332 L 1342 1332 L 1342 1333 L 1340 1333 L 1340 1334 L 1339 1334 L 1339 1335 L 1337 1335 L 1337 1336 L 1336 1336 L 1336 1337 L 1334 1337 L 1334 1338 L 1333 1338 L 1333 1339 L 1331 1339 L 1331 1340 L 1330 1340 L 1330 1341 L 1329 1341 L 1329 1342 L 1327 1342 L 1327 1343 L 1326 1343 L 1326 1344 L 1324 1344 L 1324 1345 L 1323 1345 L 1323 1346 L 1321 1346 L 1321 1347 L 1320 1347 L 1320 1348 L 1318 1348 L 1318 1349 L 1317 1349 L 1317 1350 L 1316 1350 L 1316 1351 L 1314 1351 L 1314 1352 L 1313 1352 L 1313 1353 L 1311 1353 L 1311 1354 L 1310 1354 L 1310 1355 L 1308 1355 L 1308 1356 L 1307 1356 L 1307 1355 L 1308 1355 L 1308 1354 L 1309 1354 L 1309 1352 L 1310 1352 L 1310 1351 L 1311 1351 L 1311 1349 L 1312 1349 L 1312 1348 L 1313 1348 L 1313 1346 L 1314 1346 L 1314 1345 L 1315 1345 L 1315 1343 L 1316 1343 L 1316 1342 L 1317 1342 L 1317 1340 L 1318 1340 L 1318 1338 L 1319 1338 L 1319 1337 L 1320 1337 L 1320 1335 L 1321 1335 L 1321 1334 L 1322 1334 L 1322 1332 L 1323 1332 L 1323 1331 L 1324 1331 L 1324 1329 L 1325 1329 L 1325 1327 L 1326 1327 L 1326 1326 L 1327 1326 L 1327 1324 L 1328 1324 L 1328 1322 L 1329 1322 L 1329 1321 L 1330 1321 L 1330 1319 L 1331 1319 L 1331 1317 L 1332 1317 L 1332 1315 L 1333 1315 L 1333 1313 L 1334 1313 L 1334 1312 L 1335 1312 L 1335 1310 L 1336 1310 L 1336 1308 L 1337 1308 L 1337 1306 L 1338 1306 L 1338 1304 L 1339 1304 L 1339 1303 L 1340 1303 L 1340 1301 L 1341 1301 L 1341 1299 L 1342 1299 L 1342 1297 L 1343 1297 L 1343 1295 L 1344 1295 L 1344 1294 L 1345 1294 L 1345 1292 L 1346 1292 L 1346 1290 L 1347 1290 L 1347 1288 L 1348 1288 L 1348 1286 L 1349 1286 L 1349 1284 L 1350 1284 L 1350 1282 L 1351 1282 L 1351 1280 L 1352 1280 L 1352 1277 L 1353 1277 L 1353 1275 L 1354 1275 L 1354 1273 L 1355 1273 L 1355 1271 L 1356 1271 L 1356 1269 L 1357 1269 L 1357 1267 L 1358 1267 L 1358 1265 L 1359 1265 L 1359 1262 L 1360 1262 L 1360 1260 L 1361 1260 L 1361 1258 L 1362 1258 L 1362 1256 L 1363 1256 L 1363 1254 L 1364 1254 L 1364 1252 L 1365 1252 L 1365 1249 L 1366 1249 L 1366 1247 L 1367 1247 L 1367 1244 L 1368 1244 L 1368 1241 L 1369 1241 L 1369 1239 L 1370 1239 L 1370 1236 L 1371 1236 L 1371 1234 L 1372 1234 L 1372 1231 L 1373 1231 L 1373 1229 L 1374 1229 L 1374 1226 L 1375 1226 L 1375 1224 L 1376 1224 L 1376 1221 L 1377 1221 L 1377 1218 L 1378 1218 L 1378 1215 L 1379 1215 L 1379 1212 L 1380 1212 L 1380 1208 L 1381 1208 L 1381 1205 L 1382 1205 L 1382 1202 L 1383 1202 L 1383 1198 L 1384 1198 L 1384 1194 L 1385 1194 L 1385 1191 L 1386 1191 L 1386 1187 L 1387 1187 L 1387 1183 L 1388 1183 L 1388 1179 L 1389 1179 L 1389 1175 L 1390 1175 L 1390 1172 L 1391 1172 L 1391 1166 L 1392 1166 L 1392 1161 L 1393 1161 L 1393 1156 L 1394 1156 L 1394 1151 L 1395 1151 L 1395 1146 L 1396 1146 L 1396 1141 L 1397 1141 L 1397 1136 L 1398 1136 L 1398 1131 L 1399 1131 L 1399 1124 L 1400 1124 L 1400 1116 L 1401 1116 L 1401 1108 L 1402 1108 L 1402 1100 L 1403 1100 L 1403 1092 L 1404 1092 L 1404 1081 L 1405 1081 L 1405 1065 L 1406 1065 L 1406 1019 L 1405 1019 L 1405 1002 L 1404 1002 L 1404 992 L 1403 992 L 1403 984 L 1402 984 L 1402 976 L 1401 976 L 1401 967 L 1400 967 L 1400 959 L 1399 959 L 1399 953 L 1398 953 L 1398 947 L 1397 947 L 1397 942 L 1396 942 L 1396 937 L 1395 937 L 1395 932 L 1394 932 L 1394 927 L 1393 927 L 1393 922 L 1392 922 L 1392 917 L 1391 917 L 1391 912 L 1390 912 L 1390 908 L 1389 908 L 1389 904 L 1388 904 L 1388 901 L 1387 901 L 1387 897 L 1386 897 L 1386 893 L 1385 893 L 1385 889 L 1384 889 L 1384 885 L 1383 885 L 1383 882 L 1382 882 L 1382 878 L 1381 878 L 1381 875 L 1380 875 L 1380 872 L 1379 872 L 1379 869 L 1378 869 L 1378 866 L 1377 866 L 1377 863 L 1376 863 L 1376 860 L 1375 860 L 1375 857 L 1374 857 L 1374 855 L 1373 855 L 1373 852 L 1372 852 L 1372 850 L 1371 850 L 1371 847 L 1370 847 L 1370 845 L 1369 845 L 1369 842 L 1368 842 L 1368 840 L 1367 840 L 1367 837 L 1366 837 L 1366 835 L 1365 835 L 1365 832 L 1364 832 L 1364 830 L 1363 830 L 1363 827 L 1362 827 L 1362 825 L 1361 825 L 1361 823 L 1360 823 L 1360 821 L 1359 821 L 1359 819 L 1358 819 L 1358 817 L 1357 817 L 1357 815 L 1356 815 L 1356 813 L 1355 813 L 1355 810 L 1354 810 L 1354 808 L 1353 808 L 1353 806 L 1352 806 L 1352 804 L 1351 804 L 1351 802 L 1350 802 L 1350 800 L 1349 800 L 1349 798 L 1348 798 L 1348 796 L 1347 796 L 1347 793 L 1346 793 L 1346 791 L 1345 791 L 1345 790 L 1344 790 L 1344 788 L 1343 788 L 1343 786 L 1342 786 L 1342 784 L 1341 784 L 1341 782 L 1340 782 L 1340 781 L 1339 781 L 1339 779 L 1338 779 L 1338 777 L 1337 777 L 1337 775 L 1336 775 L 1336 774 L 1335 774 L 1335 772 L 1334 772 L 1334 770 L 1333 770 L 1333 768 L 1332 768 L 1332 767 L 1331 767 L 1331 765 L 1330 765 L 1330 763 L 1329 763 L 1329 761 L 1328 761 L 1328 759 L 1327 759 L 1327 758 L 1326 758 L 1326 756 L 1325 756 L 1325 754 L 1324 754 L 1324 753 L 1323 753 L 1323 751 L 1322 751 L 1322 749 L 1321 749 L 1321 748 L 1320 748 L 1320 746 L 1319 746 L 1319 745 L 1318 745 L 1318 743 L 1317 743 L 1317 742 L 1316 742 L 1316 740 L 1315 740 L 1315 739 L 1314 739 L 1314 737 L 1313 737 L 1313 736 L 1312 736 L 1312 734 L 1311 734 L 1311 733 L 1310 733 L 1310 731 L 1309 731 L 1309 729 L 1308 729 L 1308 728 L 1307 728 L 1307 726 L 1306 726 L 1306 725 L 1305 725 L 1305 724 L 1304 724 L 1304 722 L 1303 722 L 1303 721 L 1302 721 L 1302 719 L 1301 719 L 1301 718 L 1300 718 L 1300 717 L 1299 717 L 1299 715 L 1298 715 L 1298 714 L 1297 714 L 1297 713 L 1296 713 L 1296 711 L 1295 711 L 1295 710 L 1294 710 L 1294 709 L 1293 709 L 1293 708 L 1292 708 L 1292 706 L 1291 706 L 1291 705 L 1290 705 L 1290 704 L 1289 704 L 1289 703 L 1288 703 L 1288 702 L 1287 702 L 1287 700 L 1286 700 L 1286 699 L 1285 699 L 1285 698 L 1284 698 L 1284 697 L 1283 697 L 1283 696 L 1282 696 L 1282 694 L 1281 694 L 1281 693 L 1280 693 L 1280 692 L 1279 692 L 1279 691 L 1278 691 L 1278 690 L 1277 690 L 1277 688 L 1276 688 L 1276 687 L 1275 687 L 1275 686 L 1274 686 L 1274 685 L 1273 685 L 1273 684 L 1272 684 L 1272 683 L 1271 683 L 1271 682 L 1270 682 L 1270 681 L 1269 681 L 1269 679 L 1268 679 L 1268 678 L 1267 678 L 1267 677 L 1266 677 L 1266 676 L 1265 676 L 1265 675 L 1264 675 L 1264 674 L 1263 674 L 1263 673 L 1262 673 L 1262 672 L 1261 672 L 1261 671 L 1260 671 L 1260 670 L 1259 670 L 1259 669 L 1258 669 L 1258 668 L 1257 668 L 1257 667 L 1256 667 L 1256 666 L 1255 666 L 1255 665 L 1254 665 L 1254 664 L 1253 664 L 1253 663 L 1252 663 L 1252 662 L 1251 662 L 1251 661 L 1250 661 L 1250 659 L 1249 659 L 1249 658 L 1248 658 L 1248 657 L 1247 657 L 1247 656 L 1246 656 L 1246 655 L 1245 655 L 1245 654 L 1244 654 L 1244 653 L 1243 653 L 1243 652 L 1242 652 L 1242 651 L 1240 651 L 1240 650 L 1239 650 L 1239 649 L 1238 649 L 1238 648 L 1237 648 L 1237 647 L 1236 647 L 1236 646 L 1235 646 L 1235 645 L 1234 645 L 1234 644 L 1233 644 L 1233 643 L 1232 643 L 1232 642 L 1231 642 L 1231 641 L 1229 641 L 1229 640 L 1228 640 L 1228 639 L 1227 639 L 1227 638 L 1226 638 L 1226 637 L 1225 637 L 1225 636 L 1224 636 L 1224 635 L 1223 635 L 1223 634 L 1222 634 L 1222 633 L 1221 633 L 1221 632 L 1219 632 L 1219 631 L 1218 631 L 1218 630 L 1217 630 L 1217 629 L 1216 629 L 1216 628 L 1215 628 L 1215 627 L 1214 627 L 1214 626 L 1213 626 L 1213 625 L 1212 625 L 1212 624 L 1210 624 L 1210 623 L 1209 623 L 1209 622 L 1208 622 L 1208 621 L 1207 621 L 1207 620 L 1205 620 L 1205 619 L 1204 619 L 1204 618 L 1203 618 L 1203 617 L 1202 617 L 1202 616 L 1200 616 L 1200 615 L 1199 615 L 1199 614 L 1198 614 L 1198 613 L 1197 613 L 1197 612 L 1195 612 L 1195 611 L 1194 611 L 1194 610 L 1193 610 L 1193 609 L 1192 609 L 1192 608 L 1190 608 L 1190 607 L 1189 607 L 1189 606 L 1188 606 L 1188 605 L 1187 605 L 1187 604 L 1185 604 L 1185 603 L 1184 603 L 1184 602 L 1182 602 L 1182 601 L 1181 601 L 1181 600 L 1180 600 L 1180 599 L 1178 599 L 1178 598 L 1177 598 L 1177 597 L 1175 597 L 1175 596 L 1174 596 L 1174 595 L 1172 595 L 1172 594 L 1171 594 L 1171 593 L 1169 593 L 1169 592 L 1168 592 L 1168 591 L 1166 591 L 1166 590 L 1165 590 L 1165 589 L 1163 589 L 1163 588 L 1161 588 L 1161 587 L 1160 587 L 1160 586 L 1158 586 L 1158 585 L 1156 585 L 1156 584 L 1155 584 L 1155 583 L 1153 583 L 1153 582 L 1152 582 L 1152 581 L 1150 581 L 1150 580 L 1148 580 L 1148 579 L 1147 579 L 1147 578 L 1145 578 L 1145 577 L 1144 577 L 1144 576 L 1142 576 L 1142 575 L 1140 575 L 1140 574 L 1138 574 L 1138 573 L 1136 573 L 1136 572 L 1134 572 L 1134 571 L 1132 571 L 1132 570 L 1130 570 L 1130 569 L 1129 569 L 1129 568 L 1127 568 L 1127 567 L 1125 567 L 1125 566 L 1123 566 L 1123 565 L 1121 565 L 1121 564 L 1119 564 L 1119 563 L 1117 563 L 1117 562 L 1116 562 L 1116 561 L 1114 561 L 1114 560 L 1112 560 L 1112 559 L 1110 559 L 1110 558 L 1108 558 L 1108 557 L 1106 557 L 1106 556 L 1104 556 L 1104 555 L 1102 555 L 1102 554 L 1099 554 L 1099 553 L 1097 553 L 1097 552 L 1095 552 L 1095 551 L 1093 551 L 1093 550 L 1090 550 L 1090 549 L 1088 549 L 1088 548 L 1086 548 L 1086 547 L 1084 547 L 1084 546 L 1081 546 L 1081 545 L 1079 545 L 1079 544 L 1077 544 L 1077 543 L 1075 543 L 1075 542 L 1072 542 L 1072 541 L 1070 541 L 1070 540 L 1068 540 L 1068 539 L 1065 539 L 1065 538 L 1062 538 L 1062 537 L 1059 537 L 1059 536 L 1057 536 L 1057 535 L 1054 535 L 1054 534 L 1051 534 L 1051 533 L 1048 533 L 1048 532 L 1046 532 L 1046 531 L 1043 531 L 1043 530 L 1040 530 L 1040 529 L 1037 529 L 1037 528 L 1033 528 L 1033 527 L 1030 527 L 1030 526 L 1027 526 L 1027 525 L 1023 525 L 1023 524 L 1019 524 L 1019 523 L 1015 523 L 1015 522 L 1011 522 L 1011 521 L 1006 521 L 1006 520 L 1002 520 L 1002 519 L 997 519 L 997 518 L 993 518 L 993 517 L 989 517 L 989 516 L 982 516 L 982 515 L 976 515 L 976 514 L 970 514 L 970 513 L 964 513 L 964 512 L 958 512 L 958 511 L 952 511 L 952 510 L 943 510 L 943 509 L 931 509 L 931 508 L 919 508 L 919 507 L 903 507 L 903 506 L 866 506 L 866 507 L 853 507 L 853 508 L 843 508 L 843 509 L 834 509 L 834 510 L 826 510 L 826 511 L 820 511 L 820 512 L 815 512 L 815 513 L 809 513 L 809 514 L 803 514 L 803 515 L 798 515 L 798 516 L 792 516 L 792 517 L 787 517 L 787 518 L 783 518 L 783 519 L 779 519 L 779 520 L 775 520 L 775 521 L 772 521 L 772 522 L 768 522 L 768 523 L 764 523 L 764 524 L 760 524 L 760 525 L 756 525 L 756 526 L 752 526 L 752 527 L 749 527 L 749 528 L 746 528 L 746 529 L 743 529 L 743 530 L 740 530 L 740 531 L 737 531 L 737 532 L 734 532 L 734 533 L 731 533 L 731 534 L 728 534 L 728 535 L 725 535 L 725 536 L 722 536 L 722 537 L 720 537 L 720 538 L 717 538 L 717 539 L 714 539 L 714 540 L 712 540 L 712 541 L 710 541 L 710 542 L 707 542 L 707 543 L 705 543 L 705 544 L 703 544 L 703 545 L 701 545 L 701 546 L 699 546 L 699 547 L 697 547 L 697 548 L 695 548 L 695 549 L 693 549 L 693 550 L 691 550 L 691 551 L 688 551 L 688 552 L 686 552 L 686 553 L 684 553 L 684 554 L 682 554 L 682 555 L 680 555 L 680 556 L 678 556 L 678 557 L 677 557 L 677 558 L 675 558 L 675 559 L 673 559 L 673 560 L 672 560 L 672 561 L 670 561 L 670 562 L 668 562 L 668 563 L 666 563 L 666 564 L 665 564 L 665 565 L 663 565 L 663 566 L 661 566 L 661 567 L 659 567 L 659 568 L 658 568 L 658 569 L 656 569 L 656 570 L 654 570 L 654 571 L 652 571 L 652 572 L 651 572 L 651 573 L 649 573 L 649 574 L 647 574 L 647 575 L 646 575 L 646 576 L 644 576 L 644 577 L 643 577 L 643 578 L 641 578 L 641 579 L 640 579 L 640 580 L 639 580 L 639 581 L 637 581 L 637 582 L 636 582 L 636 583 L 634 583 L 634 584 L 633 584 L 633 585 L 631 585 L 631 586 L 630 586 L 630 587 L 628 587 L 628 588 L 627 588 L 627 589 L 626 589 L 626 590 L 624 590 L 624 591 L 623 591 L 623 592 L 621 592 L 621 593 L 620 593 L 620 594 L 618 594 L 618 595 L 617 595 L 617 596 L 616 596 L 616 597 L 614 597 L 614 598 L 613 598 L 613 599 L 612 599 L 612 600 L 611 600 L 611 601 L 610 601 L 610 602 L 608 602 L 608 603 L 607 603 L 607 604 L 606 604 L 606 605 L 605 605 L 605 606 L 603 606 L 603 607 L 602 607 L 602 608 L 601 608 L 601 609 L 600 609 L 600 610 L 598 610 L 598 611 L 597 611 L 597 612 L 596 612 L 596 613 L 595 613 L 595 614 L 594 614 L 594 615 L 593 615 L 593 616 L 591 616 L 591 617 L 590 617 L 590 618 L 589 618 L 589 619 L 588 619 L 588 620 L 587 620 L 587 621 L 586 621 L 586 622 L 585 622 L 585 623 L 584 623 L 584 624 L 583 624 L 583 625 L 582 625 L 582 626 L 581 626 L 581 627 L 580 627 L 580 628 L 579 628 L 579 629 L 578 629 L 578 630 L 577 630 L 577 631 L 576 631 L 576 632 L 575 632 L 575 633 L 574 633 L 574 634 L 573 634 L 573 635 L 572 635 L 572 636 L 571 636 L 571 637 L 570 637 L 570 638 L 569 638 L 569 640 L 568 640 L 568 641 L 567 641 L 567 642 L 566 642 L 566 643 L 565 643 L 565 644 L 564 644 L 564 645 L 563 645 L 563 646 L 562 646 L 562 647 L 561 647 L 561 649 L 560 649 L 560 650 L 559 650 L 559 651 L 558 651 L 558 652 L 557 652 L 557 654 L 556 654 L 556 655 L 555 655 L 555 656 L 554 656 L 554 657 L 553 657 L 553 659 L 552 659 L 552 660 L 551 660 L 551 661 L 550 661 L 550 662 L 549 662 L 549 664 L 548 664 L 548 665 L 547 665 L 547 666 L 546 666 L 546 667 L 545 667 L 545 669 L 544 669 L 544 670 L 543 670 L 543 671 L 542 671 L 542 672 L 541 672 L 541 674 L 540 674 L 540 675 L 539 675 L 539 677 L 538 677 L 538 678 L 537 678 L 537 680 L 536 680 L 536 682 L 535 682 L 535 683 L 534 683 L 534 685 L 533 685 L 533 686 L 532 686 L 532 688 L 531 688 L 531 689 L 530 689 L 530 691 L 529 691 L 529 692 L 528 692 L 528 694 L 527 694 L 527 695 L 526 695 L 526 697 L 525 697 L 525 698 L 524 698 L 524 700 L 523 700 L 523 702 L 522 702 L 522 703 L 521 703 L 521 705 L 520 705 L 520 707 L 519 707 L 519 709 L 518 709 L 518 711 L 517 711 L 517 713 L 516 713 L 516 715 L 515 715 L 515 716 L 514 716 L 514 718 L 513 718 L 513 720 L 512 720 L 512 722 L 511 722 L 511 724 L 510 724 L 510 726 L 509 726 L 509 728 L 508 728 L 508 730 L 507 730 L 507 733 L 506 733 L 506 734 L 509 734 L 509 733 L 511 733 L 511 732 L 513 732 L 513 731 L 516 731 L 516 730 L 518 730 L 518 729 L 521 729 L 521 728 L 523 728 L 523 727 L 526 727 L 526 726 L 528 726 L 528 725 L 531 725 L 531 724 L 533 724 L 533 723 L 536 723 L 536 722 L 538 722 L 538 721 L 541 721 L 541 720 L 544 720 L 544 719 L 547 719 L 547 718 L 550 718 L 550 717 L 553 717 L 553 716 L 556 716 L 556 715 L 559 715 L 559 714 L 562 714 L 562 713 L 564 713 L 564 712 L 567 712 L 567 711 L 571 711 L 571 710 L 574 710 L 574 709 L 578 709 L 578 708 L 581 708 L 581 707 L 585 707 L 585 706 L 589 706 L 589 705 L 592 705 L 592 704 L 596 704 L 596 703 L 599 703 L 599 702 L 604 702 L 604 701 L 609 701 L 609 700 L 613 700 L 613 699 L 618 699 L 618 698 L 623 698 L 623 697 L 628 697 L 628 696 L 633 696 L 633 695 L 640 695 L 640 694 L 646 694 L 646 693 L 653 693 L 653 692 L 660 692 L 660 691 L 671 691 L 671 690 L 683 690 L 683 689 L 707 689 L 707 688 L 723 688 L 723 689 L 746 689 L 746 690 L 756 690 L 756 691 L 766 691 L 766 692 L 774 692 L 774 693 L 780 693 L 780 694 L 786 694 L 786 695 L 792 695 L 792 696 L 798 696 L 798 697 L 802 697 L 802 698 L 807 698 L 807 699 L 811 699 L 811 700 L 815 700 L 815 701 L 820 701 L 820 702 L 824 702 L 824 703 L 827 703 L 827 704 L 830 704 L 830 705 L 834 705 L 834 706 L 837 706 L 837 707 L 840 707 L 840 708 L 844 708 L 844 709 L 847 709 L 847 710 L 850 710 L 850 711 L 853 711 L 853 712 L 855 712 L 855 713 L 858 713 L 858 714 L 861 714 L 861 715 L 863 715 L 863 716 L 866 716 L 866 717 L 869 717 L 869 718 L 871 718 L 871 719 L 874 719 L 874 720 L 876 720 L 876 721 L 878 721 L 878 722 L 880 722 L 880 723 L 883 723 L 883 724 L 885 724 L 885 725 L 887 725 L 887 726 L 889 726 L 889 727 L 892 727 L 892 728 L 894 728 L 894 729 L 896 729 L 896 730 L 898 730 L 898 731 L 899 731 L 899 732 L 901 732 L 901 733 L 903 733 L 903 734 L 905 734 L 905 735 L 907 735 L 907 736 L 909 736 L 909 737 L 911 737 L 911 738 L 913 738 L 913 739 L 915 739 L 915 740 L 916 740 L 916 741 L 918 741 L 918 742 L 920 742 L 920 743 L 921 743 L 921 744 L 923 744 L 923 745 L 925 745 L 925 746 L 926 746 L 926 747 L 928 747 L 928 748 L 930 748 L 930 749 L 931 749 L 931 750 L 933 750 L 933 751 L 934 751 L 934 752 L 936 752 L 936 753 L 937 753 L 937 754 L 939 754 L 939 755 L 940 755 L 940 756 L 942 756 L 942 757 L 943 757 L 943 758 L 944 758 L 944 759 L 946 759 L 946 760 L 947 760 L 947 761 L 948 761 L 948 762 L 950 762 L 950 763 L 951 763 L 951 764 L 953 764 L 953 765 L 954 765 L 954 766 L 955 766 L 955 767 L 956 767 L 956 768 L 958 768 L 958 769 L 959 769 L 959 770 L 960 770 L 960 771 L 961 771 L 961 772 L 963 772 L 963 773 L 964 773 L 964 774 L 965 774 L 965 775 L 966 775 L 966 776 L 968 776 L 968 777 L 969 777 L 969 778 L 970 778 L 970 779 L 971 779 L 971 780 L 972 780 L 972 781 L 974 781 L 974 782 L 975 782 L 975 783 L 976 783 L 976 784 L 977 784 L 977 785 L 978 785 L 978 786 L 979 786 L 979 787 L 980 787 L 980 788 L 981 788 L 981 789 L 982 789 L 982 790 L 984 790 L 984 791 L 985 791 L 985 792 L 986 792 L 986 793 L 987 793 L 987 794 L 988 794 L 988 795 L 989 795 L 989 796 L 990 796 L 990 797 L 991 797 L 991 798 L 992 798 L 992 799 L 993 799 L 993 800 L 994 800 L 994 801 L 995 801 L 995 802 L 996 802 L 996 803 L 997 803 L 997 804 L 998 804 L 998 805 L 999 805 L 999 806 L 1000 806 L 1000 807 L 1001 807 L 1001 808 L 1002 808 L 1002 809 L 1003 809 L 1003 810 L 1004 810 L 1004 811 L 1005 811 L 1005 812 L 1006 812 L 1006 813 L 1007 813 L 1007 814 L 1008 814 L 1008 815 L 1009 815 L 1009 816 L 1010 816 L 1010 818 L 1011 818 L 1011 819 L 1012 819 L 1012 820 L 1013 820 L 1013 822 L 1014 822 L 1014 823 L 1015 823 L 1015 824 L 1016 824 L 1016 825 L 1017 825 L 1017 827 L 1018 827 L 1018 828 L 1019 828 L 1019 829 L 1020 829 L 1020 831 L 1021 831 L 1021 832 L 1022 832 L 1022 833 L 1023 833 L 1023 834 L 1024 834 L 1024 836 L 1025 836 L 1025 837 L 1026 837 L 1026 838 L 1027 838 L 1027 840 L 1028 840 L 1028 841 L 1029 841 L 1029 842 L 1030 842 L 1030 843 L 1031 843 L 1031 845 L 1032 845 L 1032 846 L 1033 846 L 1033 848 L 1034 848 L 1034 849 L 1035 849 L 1035 851 L 1036 851 L 1036 852 L 1037 852 L 1037 854 L 1038 854 L 1038 855 L 1039 855 L 1039 857 L 1040 857 L 1040 858 L 1041 858 L 1041 860 L 1042 860 L 1042 861 L 1043 861 L 1043 863 L 1044 863 L 1044 864 L 1045 864 L 1045 866 L 1046 866 L 1046 867 L 1047 867 L 1047 869 L 1048 869 L 1048 871 L 1049 871 L 1049 872 L 1050 872 L 1050 874 L 1051 874 L 1051 875 L 1052 875 L 1052 877 L 1053 877 L 1053 879 L 1054 879 L 1054 880 L 1055 880 L 1055 882 L 1056 882 L 1056 884 L 1057 884 L 1057 886 L 1058 886 L 1058 888 L 1059 888 L 1059 890 L 1060 890 L 1060 893 L 1061 893 L 1061 895 L 1062 895 L 1062 897 L 1063 897 L 1063 899 L 1064 899 L 1064 902 L 1065 902 L 1065 904 L 1066 904 L 1066 906 L 1067 906 L 1067 908 L 1068 908 L 1068 911 L 1069 911 L 1069 913 L 1070 913 L 1070 915 L 1071 915 L 1071 917 L 1072 917 L 1072 920 L 1073 920 L 1073 922 L 1074 922 L 1074 925 L 1075 925 L 1075 928 L 1076 928 L 1076 931 L 1077 931 L 1077 934 L 1078 934 L 1078 937 L 1079 937 L 1079 940 L 1080 940 L 1080 943 L 1081 943 L 1081 946 L 1082 946 L 1082 948 L 1083 948 L 1083 951 L 1084 951 L 1084 955 L 1085 955 L 1085 959 L 1086 959 L 1086 963 L 1087 963 L 1087 967 L 1088 967 L 1088 973 L 1089 973 L 1089 979 L 1090 979 L 1090 985 L 1091 985 L 1091 991 L 1092 991 L 1092 997 L 1093 997 L 1093 1004 L 1094 1004 L 1094 1016 L 1095 1016 L 1095 1027 L 1096 1027 L 1096 1057 L 1095 1057 L 1095 1070 L 1094 1070 L 1094 1082 L 1093 1082 L 1093 1088 L 1092 1088 L 1092 1094 L 1091 1094 L 1091 1100 L 1090 1100 L 1090 1106 L 1089 1106 L 1089 1112 L 1088 1112 L 1088 1118 L 1087 1118 L 1087 1122 L 1086 1122 L 1086 1127 L 1085 1127 L 1085 1130 L 1084 1130 L 1084 1133 L 1083 1133 L 1083 1136 L 1082 1136 L 1082 1139 L 1081 1139 L 1081 1142 L 1080 1142 L 1080 1145 L 1079 1145 L 1079 1148 L 1078 1148 L 1078 1151 L 1077 1151 L 1077 1154 L 1076 1154 L 1076 1157 L 1075 1157 L 1075 1160 L 1074 1160 L 1074 1163 L 1073 1163 L 1073 1165 L 1072 1165 L 1072 1167 L 1071 1167 L 1071 1170 L 1070 1170 L 1070 1172 L 1069 1172 L 1069 1174 L 1068 1174 L 1068 1177 L 1067 1177 L 1067 1179 L 1066 1179 L 1066 1181 L 1065 1181 L 1065 1183 L 1064 1183 L 1064 1186 L 1063 1186 L 1063 1188 L 1062 1188 L 1062 1190 L 1061 1190 L 1061 1192 L 1060 1192 L 1060 1195 L 1059 1195 L 1059 1197 L 1058 1197 L 1058 1199 L 1057 1199 L 1057 1201 L 1056 1201 L 1056 1203 L 1055 1203 L 1055 1205 L 1054 1205 L 1054 1206 L 1053 1206 L 1053 1208 L 1052 1208 L 1052 1210 L 1051 1210 L 1051 1211 L 1050 1211 L 1050 1213 L 1049 1213 L 1049 1214 L 1048 1214 L 1048 1216 L 1047 1216 L 1047 1217 L 1046 1217 L 1046 1219 L 1045 1219 L 1045 1220 L 1044 1220 L 1044 1222 L 1043 1222 L 1043 1223 L 1042 1223 L 1042 1225 L 1041 1225 L 1041 1227 L 1040 1227 L 1040 1228 L 1039 1228 L 1039 1230 L 1038 1230 L 1038 1231 L 1037 1231 L 1037 1233 L 1036 1233 L 1036 1234 L 1035 1234 L 1035 1236 L 1034 1236 L 1034 1237 L 1033 1237 L 1033 1239 L 1032 1239 L 1032 1240 L 1031 1240 L 1031 1241 L 1030 1241 L 1030 1243 L 1029 1243 L 1029 1244 L 1028 1244 L 1028 1245 L 1027 1245 L 1027 1247 L 1026 1247 L 1026 1248 L 1025 1248 L 1025 1249 L 1024 1249 L 1024 1250 L 1023 1250 L 1023 1252 L 1022 1252 L 1022 1253 L 1021 1253 L 1021 1254 L 1020 1254 L 1020 1256 L 1019 1256 L 1019 1257 L 1018 1257 L 1018 1258 L 1017 1258 L 1017 1259 L 1016 1259 L 1016 1261 L 1015 1261 L 1015 1262 L 1014 1262 L 1014 1263 L 1013 1263 L 1013 1265 L 1012 1265 L 1012 1266 L 1011 1266 L 1011 1267 L 1010 1267 L 1010 1268 L 1009 1268 L 1009 1269 L 1008 1269 L 1008 1271 L 1007 1271 L 1007 1272 L 1006 1272 L 1006 1273 L 1005 1273 L 1005 1274 L 1004 1274 L 1004 1275 L 1003 1275 L 1003 1276 L 1002 1276 L 1002 1277 L 1001 1277 L 1001 1278 L 1000 1278 L 1000 1279 L 999 1279 L 999 1280 L 998 1280 L 998 1281 L 997 1281 L 997 1282 L 996 1282 L 996 1283 L 995 1283 L 995 1284 L 994 1284 L 994 1285 L 993 1285 L 993 1286 L 992 1286 L 992 1287 L 991 1287 L 991 1288 L 990 1288 L 990 1289 L 989 1289 L 989 1290 L 988 1290 L 988 1291 L 987 1291 L 987 1292 L 985 1292 L 985 1293 L 984 1293 L 984 1294 L 983 1294 L 983 1295 L 982 1295 L 982 1296 L 981 1296 L 981 1297 L 980 1297 L 980 1298 L 979 1298 L 979 1299 L 978 1299 L 978 1300 L 977 1300 L 977 1301 L 976 1301 L 976 1302 L 974 1302 L 974 1303 L 973 1303 L 973 1304 L 972 1304 L 972 1305 L 971 1305 L 971 1306 L 970 1306 L 970 1307 L 968 1307 L 968 1308 L 967 1308 L 967 1309 L 966 1309 L 966 1310 L 965 1310 L 965 1311 L 964 1311 L 964 1312 L 962 1312 L 962 1313 L 961 1313 L 961 1314 L 960 1314 L 960 1315 L 959 1315 L 959 1316 L 957 1316 L 957 1317 L 956 1317 L 956 1318 L 955 1318 L 955 1319 L 954 1319 L 954 1320 L 952 1320 L 952 1321 L 951 1321 L 951 1322 L 949 1322 L 949 1323 L 948 1323 L 948 1324 L 947 1324 L 947 1325 L 945 1325 L 945 1326 L 944 1326 L 944 1327 L 943 1327 L 943 1328 L 941 1328 L 941 1329 L 940 1329 L 940 1330 L 938 1330 L 938 1331 L 937 1331 L 937 1332 L 935 1332 L 935 1333 L 934 1333 L 934 1334 L 932 1334 L 932 1335 L 931 1335 L 931 1336 L 929 1336 L 929 1337 L 927 1337 L 927 1338 L 926 1338 L 926 1339 L 924 1339 L 924 1340 L 923 1340 L 923 1341 L 921 1341 L 921 1342 L 919 1342 L 919 1343 L 918 1343 L 918 1344 L 916 1344 L 916 1345 L 914 1345 L 914 1346 L 912 1346 L 912 1347 L 910 1347 L 910 1348 L 908 1348 L 908 1349 L 907 1349 L 907 1350 L 905 1350 L 905 1351 L 903 1351 L 903 1352 L 901 1352 L 901 1353 L 899 1353 L 899 1354 L 897 1354 L 897 1355 L 895 1355 L 895 1356 L 892 1356 L 892 1357 L 890 1357 L 890 1358 L 888 1358 L 888 1359 L 885 1359 L 885 1360 L 883 1360 L 883 1361 L 880 1361 L 880 1362 L 878 1362 L 878 1363 L 876 1363 L 876 1364 L 873 1364 L 873 1365 L 871 1365 L 871 1366 L 868 1366 L 868 1367 L 865 1367 L 865 1368 L 862 1368 L 862 1369 L 859 1369 L 859 1370 L 856 1370 L 856 1371 L 853 1371 L 853 1372 L 850 1372 L 850 1373 L 847 1373 L 847 1374 L 842 1374 L 842 1375 L 838 1375 L 838 1376 L 834 1376 L 834 1377 L 830 1377 L 830 1378 L 825 1378 L 825 1379 L 821 1379 L 821 1380 L 814 1380 L 814 1381 L 808 1381 L 808 1382 L 801 1382 L 801 1383 L 792 1383 L 792 1384 L 778 1384 L 778 1385 L 744 1385 L 744 1384 L 732 1384 L 732 1383 L 721 1383 L 721 1382 L 715 1382 L 715 1381 L 709 1381 L 709 1380 L 703 1380 L 703 1379 L 697 1379 L 697 1378 L 692 1378 L 692 1377 L 688 1377 L 688 1376 L 684 1376 L 684 1375 L 680 1375 L 680 1374 L 676 1374 L 676 1373 L 672 1373 L 672 1372 L 669 1372 L 669 1371 L 666 1371 L 666 1370 L 662 1370 L 662 1369 L 659 1369 L 659 1368 L 656 1368 L 656 1367 L 653 1367 L 653 1366 L 650 1366 L 650 1365 L 647 1365 L 647 1364 L 644 1364 L 644 1363 L 642 1363 L 642 1362 L 640 1362 L 640 1361 L 637 1361 L 637 1360 L 635 1360 L 635 1359 L 632 1359 L 632 1358 L 630 1358 L 630 1357 L 627 1357 L 627 1356 L 625 1356 L 625 1355 L 622 1355 L 622 1354 L 620 1354 L 620 1353 L 618 1353 L 618 1352 L 616 1352 L 616 1351 L 614 1351 L 614 1350 L 612 1350 L 612 1349 L 610 1349 L 610 1348 L 608 1348 L 608 1347 L 606 1347 L 606 1346 L 604 1346 L 604 1345 L 602 1345 L 602 1344 L 600 1344 L 600 1343 L 598 1343 L 598 1342 L 597 1342 L 597 1341 L 595 1341 L 595 1340 L 593 1340 L 593 1339 L 592 1339 L 592 1338 L 590 1338 L 590 1337 L 588 1337 L 588 1336 L 586 1336 L 586 1335 L 585 1335 L 585 1334 L 583 1334 L 583 1333 L 581 1333 L 581 1332 L 580 1332 L 580 1331 L 578 1331 L 578 1330 L 577 1330 L 577 1329 L 575 1329 L 575 1328 L 574 1328 L 574 1327 L 572 1327 L 572 1326 L 571 1326 L 571 1325 L 569 1325 L 569 1324 L 568 1324 L 568 1323 L 566 1323 L 566 1322 L 565 1322 L 565 1321 L 563 1321 L 563 1320 L 562 1320 L 562 1319 L 561 1319 L 561 1318 L 559 1318 L 559 1317 L 558 1317 L 558 1316 L 556 1316 L 556 1315 L 555 1315 L 555 1314 L 554 1314 L 554 1313 L 552 1313 L 552 1312 L 551 1312 L 551 1311 L 550 1311 L 550 1310 L 549 1310 L 549 1309 L 547 1309 L 547 1308 L 546 1308 L 546 1307 L 545 1307 L 545 1306 L 543 1306 L 543 1305 L 542 1305 L 542 1304 L 541 1304 L 541 1303 L 540 1303 L 540 1302 L 539 1302 L 539 1301 L 537 1301 L 537 1300 L 536 1300 L 536 1299 L 535 1299 L 535 1298 L 534 1298 L 534 1297 L 533 1297 L 533 1296 L 532 1296 L 532 1295 L 530 1295 L 530 1294 L 529 1294 L 529 1293 L 528 1293 L 528 1292 L 527 1292 L 527 1291 L 526 1291 L 526 1290 L 525 1290 L 525 1289 L 524 1289 L 524 1288 L 523 1288 L 523 1287 L 522 1287 L 522 1286 L 521 1286 L 521 1285 L 520 1285 L 520 1284 L 519 1284 L 519 1283 L 518 1283 L 518 1282 L 517 1282 L 517 1281 L 516 1281 L 516 1280 L 515 1280 L 515 1279 L 514 1279 L 514 1278 L 513 1278 L 513 1277 L 511 1277 L 511 1276 L 510 1276 L 510 1275 L 509 1275 L 509 1274 L 508 1274 L 508 1273 L 507 1273 L 507 1272 L 506 1272 L 506 1271 L 505 1271 L 505 1270 L 504 1270 L 504 1269 L 503 1269 L 503 1268 L 502 1268 L 502 1267 L 501 1267 L 501 1266 L 500 1266 L 500 1265 L 499 1265 L 499 1264 L 498 1264 L 498 1263 L 497 1263 L 497 1262 L 496 1262 L 496 1261 L 495 1261 L 495 1260 L 494 1260 L 494 1259 L 493 1259 L 493 1258 L 492 1258 L 492 1257 L 491 1257 L 491 1256 L 490 1256 L 490 1255 L 489 1255 L 489 1253 L 488 1253 L 488 1252 L 487 1252 L 487 1251 L 486 1251 L 486 1250 L 485 1250 L 485 1249 L 484 1249 L 484 1248 L 483 1248 L 483 1247 L 482 1247 L 482 1246 L 481 1246 L 481 1245 L 480 1245 L 480 1244 L 479 1244 L 479 1243 L 478 1243 L 478 1242 L 477 1242 L 477 1241 L 476 1241 L 476 1239 L 475 1239 L 475 1238 L 474 1238 L 474 1237 L 473 1237 L 473 1236 L 472 1236 L 472 1235 L 471 1235 L 471 1234 L 470 1234 L 470 1233 L 469 1233 L 469 1232 L 468 1232 L 468 1231 L 467 1231 L 467 1230 L 466 1230 L 466 1228 L 465 1228 L 465 1227 L 464 1227 L 464 1226 L 463 1226 L 463 1225 L 462 1225 L 462 1224 L 461 1224 L 461 1222 L 460 1222 L 460 1221 L 459 1221 L 459 1220 L 458 1220 L 458 1219 L 457 1219 L 457 1218 L 456 1218 L 456 1216 L 455 1216 L 455 1215 L 454 1215 L 454 1214 L 453 1214 L 453 1213 L 452 1213 L 452 1211 L 451 1211 L 451 1210 L 450 1210 L 450 1209 L 449 1209 L 449 1207 L 448 1207 L 448 1206 L 447 1206 L 447 1205 L 446 1205 L 446 1203 L 445 1203 L 445 1202 L 444 1202 L 444 1201 L 443 1201 L 443 1199 L 442 1199 L 442 1198 L 441 1198 L 441 1197 L 440 1197 L 440 1195 L 439 1195 L 439 1194 L 438 1194 L 438 1192 L 437 1192 L 437 1191 L 436 1191 L 436 1190 L 435 1190 L 435 1188 L 434 1188 L 434 1187 L 433 1187 L 433 1186 L 432 1186 L 432 1184 L 431 1184 L 431 1183 L 430 1183 L 430 1182 L 429 1182 L 429 1180 L 428 1180 L 428 1179 L 427 1179 L 427 1178 L 426 1178 L 426 1176 L 425 1176 L 425 1174 L 424 1174 L 424 1173 L 423 1173 L 423 1171 L 422 1171 L 422 1170 L 421 1170 L 421 1168 L 420 1168 L 420 1167 L 419 1167 L 419 1165 L 418 1165 L 418 1163 L 417 1163 L 417 1162 L 416 1162 L 416 1160 L 415 1160 L 415 1159 L 414 1159 L 414 1157 L 413 1157 L 413 1155 L 412 1155 L 412 1154 L 411 1154 L 411 1152 L 410 1152 L 410 1151 L 409 1151 L 409 1149 L 408 1149 L 408 1148 L 407 1148 L 407 1146 L 406 1146 L 406 1144 L 405 1144 L 405 1143 L 404 1143 L 404 1141 L 403 1141 L 403 1140 L 402 1140 L 402 1138 L 401 1138 L 401 1136 L 400 1136 L 400 1135 L 399 1135 L 399 1133 L 398 1133 L 398 1132 L 397 1132 L 397 1130 L 396 1130 L 396 1128 L 395 1128 L 395 1126 L 394 1126 L 394 1125 L 393 1125 L 393 1123 L 392 1123 L 392 1121 L 391 1121 L 391 1119 L 390 1119 L 390 1117 L 389 1117 L 389 1115 L 388 1115 L 388 1113 L 387 1113 L 387 1111 L 386 1111 L 386 1109 L 385 1109 L 385 1107 L 384 1107 L 384 1105 L 383 1105 L 383 1103 L 382 1103 L 382 1101 L 381 1101 L 381 1099 L 380 1099 L 380 1097 L 379 1097 L 379 1095 L 378 1095 L 378 1094 L 377 1094 L 377 1092 L 376 1092 L 376 1090 L 375 1090 L 375 1088 L 374 1088 L 374 1086 L 373 1086 L 373 1084 L 372 1084 L 372 1082 L 371 1082 L 371 1080 L 370 1080 L 370 1078 L 369 1078 L 369 1075 L 368 1075 L 368 1073 L 367 1073 L 367 1071 L 366 1071 L 366 1068 L 365 1068 L 365 1066 L 364 1066 L 364 1063 L 363 1063 L 363 1061 L 362 1061 L 362 1058 L 361 1058 L 361 1056 L 360 1056 L 360 1053 L 359 1053 L 359 1051 L 358 1051 L 358 1049 L 357 1049 L 357 1046 L 356 1046 L 356 1044 L 355 1044 L 355 1041 L 354 1041 L 354 1039 L 353 1039 L 353 1036 L 352 1036 L 352 1034 L 351 1034 L 351 1032 L 350 1032 L 350 1029 L 349 1029 L 349 1027 L 348 1027 L 348 1024 L 347 1024 L 347 1020 L 346 1020 L 346 1017 L 345 1017 L 345 1014 L 344 1014 L 344 1011 L 343 1011 L 343 1008 L 342 1008 L 342 1004 L 341 1004 L 341 1001 L 340 1001 L 340 998 L 339 998 L 339 995 L 338 995 L 338 992 L 337 992 L 337 988 L 336 988 L 336 985 L 335 985 L 335 982 L 334 982 L 334 979 L 333 979 L 333 976 L 332 976 L 332 972 L 331 972 L 331 968 L 330 968 L 330 963 L 329 963 L 329 959 L 328 959 L 328 954 L 327 954 L 327 950 L 326 950 L 326 945 L 325 945 L 325 941 L 324 941 L 324 936 L 323 936 L 323 932 L 322 932 L 322 927 L 321 927 L 321 923 L 320 923 L 320 918 L 319 918 L 319 911 L 318 911 L 318 903 L 317 903 L 317 896 L 316 896 L 316 888 L 315 888 L 315 881 L 314 881 L 314 873 L 313 873 L 313 865 L 312 865 L 312 853 L 311 853 L 311 836 L 310 836 L 310 817 L 309 817 L 309 792 L 310 792 L 310 775 L 311 775 L 311 758 L 312 758 L 312 746 L 313 746 L 313 738 L 314 738 L 314 731 L 315 731 L 315 723 L 316 723 L 316 715 L 317 715 L 317 708 L 318 708 L 318 700 L 319 700 L 319 693 L 320 693 L 320 689 L 321 689 L 321 684 L 322 684 L 322 680 L 323 680 L 323 675 L 324 675 L 324 670 L 325 670 L 325 666 L 326 666 L 326 661 L 327 661 L 327 657 L 328 657 L 328 652 L 329 652 L 329 648 L 330 648 L 330 643 L 331 643 L 331 639 L 332 639 L 332 636 L 333 636 L 333 633 L 334 633 L 334 629 L 335 629 L 335 626 L 336 626 L 336 623 L 337 623 L 337 620 L 338 620 L 338 616 L 339 616 L 339 613 L 340 613 L 340 610 L 341 610 L 341 607 L 342 607 L 342 604 L 343 604 L 343 600 L 344 600 L 344 597 L 345 597 L 345 594 L 346 594 L 346 591 L 347 591 L 347 587 L 348 587 L 348 585 L 349 585 L 349 582 L 350 582 L 350 580 L 351 580 L 351 577 L 352 577 L 352 575 L 353 575 L 353 572 L 354 572 L 354 570 L 355 570 L 355 568 L 356 568 L 356 565 L 357 565 L 357 563 L 358 563 L 358 560 L 359 560 L 359 558 L 360 558 L 360 555 L 361 555 L 361 553 L 362 553 L 362 550 L 363 550 L 363 548 L 364 548 L 364 546 L 365 546 L 365 543 L 366 543 L 366 541 L 367 541 L 367 538 L 368 538 L 368 536 L 369 536 L 369 533 L 370 533 L 370 531 L 371 531 L 371 529 L 372 529 L 372 528 L 373 528 L 373 526 L 374 526 L 374 524 L 375 524 L 375 522 L 376 522 L 376 520 L 377 520 L 377 518 L 378 518 L 378 516 L 379 516 L 379 514 L 380 514 L 380 512 L 381 512 L 381 510 L 382 510 L 382 508 L 383 508 L 383 506 L 384 506 L 384 504 L 385 504 L 385 502 L 386 502 L 386 500 L 387 500 L 387 498 L 388 498 L 388 496 L 389 496 L 389 494 L 390 494 L 390 493 L 391 493 L 391 491 L 392 491 L 392 489 L 393 489 L 393 487 L 394 487 L 394 485 L 395 485 L 395 483 L 396 483 L 396 481 L 397 481 L 397 480 L 398 480 L 398 478 L 399 478 L 399 476 L 400 476 L 400 475 L 401 475 L 401 473 L 402 473 L 402 472 L 403 472 L 403 470 L 404 470 L 404 469 L 405 469 L 405 467 L 406 467 L 406 465 L 407 465 L 407 464 L 408 464 L 408 462 L 409 462 L 409 461 L 410 461 L 410 459 L 411 459 L 411 457 L 412 457 L 412 456 L 413 456 L 413 454 L 414 454 L 414 453 L 415 453 L 415 451 L 416 451 L 416 449 L 417 449 L 417 448 L 418 448 L 418 446 L 419 446 L 419 445 L 420 445 L 420 443 L 421 443 L 421 442 L 422 442 L 422 440 L 423 440 L 423 438 L 424 438 L 424 437 L 425 437 L 425 435 L 426 435 L 426 434 L 427 434 L 427 432 L 428 432 L 428 431 L 429 431 L 429 430 L 430 430 L 430 428 L 431 428 L 431 427 L 432 427 L 432 426 L 433 426 L 433 424 L 434 424 L 434 423 L 435 423 L 435 422 L 436 422 L 436 420 L 437 420 L 437 419 L 438 419 L 438 417 L 439 417 L 439 416 L 440 416 L 440 415 L 441 415 L 441 413 L 442 413 L 442 412 L 443 412 L 443 411 L 444 411 L 444 409 L 445 409 L 445 408 L 446 408 L 446 407 L 447 407 L 447 405 L 448 405 L 448 404 L 449 404 L 449 403 L 450 403 L 450 401 L 451 401 L 451 400 L 452 400 L 452 399 L 453 399 L 453 397 L 454 397 L 454 396 L 455 396 L 455 395 L 456 395 L 456 394 L 457 394 L 457 393 L 458 393 L 458 391 L 459 391 L 459 390 L 460 390 L 460 389 L 461 389 L 461 388 L 462 388 L 462 387 L 463 387 L 463 385 L 464 385 L 464 384 L 465 384 L 465 383 L 466 383 L 466 382 L 467 382 L 467 381 L 468 381 L 468 380 L 469 380 L 469 378 L 470 378 L 470 377 L 471 377 L 471 376 L 472 376 L 472 375 L 473 375 L 473 374 L 474 374 L 474 373 L 475 373 L 475 372 L 476 372 L 476 371 L 477 371 L 477 369 L 478 369 L 478 368 L 479 368 L 479 367 L 480 367 L 480 366 L 481 366 L 481 365 L 482 365 L 482 364 L 483 364 L 483 363 L 484 363 L 484 362 L 485 362 L 485 361 L 486 361 L 486 360 L 487 360 L 487 359 L 488 359 L 488 358 L 489 358 L 489 357 L 490 357 L 490 356 L 491 356 L 491 355 L 492 355 L 492 353 L 493 353 L 493 352 L 494 352 L 494 351 L 495 351 L 495 350 L 496 350 L 496 349 L 497 349 L 497 348 L 498 348 L 498 347 L 499 347 L 499 346 L 500 346 L 500 345 L 501 345 L 501 344 L 502 344 L 502 343 L 503 343 L 503 342 L 504 342 L 504 341 L 505 341 L 505 340 L 506 340 L 506 339 L 507 339 L 507 338 L 508 338 L 508 337 L 509 337 L 509 336 L 511 336 L 511 335 L 512 335 L 512 334 L 513 334 L 513 333 L 514 333 L 514 332 L 515 332 L 515 331 L 516 331 L 516 330 L 517 330 L 517 329 L 518 329 L 518 328 L 519 328 L 519 327 L 520 327 L 520 326 L 521 326 L 521 325 L 522 325 L 522 324 L 523 324 L 523 323 L 524 323 L 524 322 L 525 322 L 525 321 L 527 321 L 527 320 L 528 320 L 528 319 L 529 319 L 529 318 L 530 318 L 530 317 L 531 317 L 531 316 L 532 316 L 532 315 L 533 315 L 533 314 L 535 314 L 535 313 L 536 313 L 536 312 L 537 312 L 537 311 L 538 311 L 538 310 L 539 310 L 539 309 L 540 309 L 540 308 L 541 308 L 541 307 L 543 307 L 543 306 L 544 306 L 544 305 L 545 305 L 545 304 L 546 304 L 546 303 L 547 303 L 547 302 L 549 302 L 549 301 L 550 301 L 550 300 L 551 300 L 551 299 L 552 299 L 552 298 L 554 298 L 554 297 L 555 297 L 555 296 L 556 296 L 556 295 L 557 295 L 557 294 L 559 294 L 559 293 L 560 293 L 560 292 L 561 292 L 561 291 L 563 291 L 563 290 L 564 290 L 564 289 L 565 289 L 565 288 L 566 288 L 566 287 L 568 287 L 568 286 L 569 286 L 569 285 L 570 285 L 570 284 L 572 284 L 572 283 L 573 283 L 573 282 L 574 282 L 574 281 L 576 281 L 576 280 L 577 280 L 577 279 L 578 279 L 578 278 L 580 278 L 580 277 L 581 277 L 581 276 L 583 276 L 583 275 L 584 275 L 584 274 L 585 274 L 585 273 L 587 273 L 587 272 L 588 272 L 588 271 L 590 271 L 590 270 L 591 270 L 591 269 L 592 269 L 592 268 L 594 268 L 594 267 L 595 267 L 595 266 L 597 266 L 597 265 L 598 265 L 598 264 L 600 264 L 600 263 L 601 263 L 601 262 L 603 262 L 603 261 L 604 261 L 604 260 L 606 260 L 606 259 L 607 259 L 607 258 L 609 258 L 609 257 L 610 257 L 610 256 L 612 256 L 612 255 L 614 255 L 614 254 L 615 254 L 615 253 L 617 253 L 617 252 L 618 252 L 618 251 L 620 251 L 620 250 L 621 250 L 621 249 L 623 249 L 623 248 L 625 248 L 625 247 L 627 247 L 627 246 L 628 246 L 628 245 L 630 245 L 630 244 L 632 244 L 632 243 L 633 243 L 633 242 L 635 242 L 635 241 L 637 241 L 637 240 L 638 240 L 638 239 L 640 239 L 640 238 L 642 238 L 642 237 L 643 237 L 643 236 L 645 236 L 645 235 L 647 235 L 647 234 L 649 234 L 649 233 L 651 233 L 651 232 L 653 232 L 653 231 L 655 231 L 655 230 L 656 230 L 656 229 L 658 229 L 658 228 L 660 228 L 660 227 L 662 227 L 662 226 L 664 226 L 664 225 L 666 225 L 666 224 L 668 224 L 668 223 L 670 223 L 670 222 L 671 222 L 671 221 L 674 221 L 674 220 L 676 220 L 676 219 L 678 219 L 678 218 L 680 218 L 680 217 L 682 217 L 682 216 L 684 216 L 684 215 L 686 215 L 686 214 L 688 214 L 688 213 L 690 213 L 690 212 L 693 212 L 693 211 L 695 211 L 695 210 L 697 210 L 697 209 L 699 209 L 699 208 L 701 208 L 701 207 L 704 207 L 704 206 L 706 206 L 706 205 L 709 205 L 709 204 L 711 204 L 711 203 L 713 203 L 713 202 L 716 202 L 716 201 L 718 201 L 718 200 L 720 200 L 720 199 L 723 199 L 723 198 L 725 198 L 725 197 L 728 197 L 728 196 L 730 196 L 730 195 L 733 195 L 733 194 L 736 194 L 736 193 L 739 193 L 739 192 L 742 192 L 742 191 L 744 191 L 744 190 L 747 190 L 747 189 L 750 189 L 750 188 L 753 188 L 753 187 L 755 187 L 755 186 L 758 186 L 758 185 L 762 185 L 762 184 L 765 184 L 765 183 L 768 183 L 768 182 L 771 182 L 771 181 L 775 181 L 775 180 L 778 180 L 778 179 L 781 179 L 781 178 L 784 178 L 784 177 L 788 177 L 788 176 L 792 176 L 792 175 L 796 175 L 796 174 L 800 174 L 800 173 L 804 173 L 804 172 L 808 172 L 808 171 L 812 171 L 812 170 L 816 170 L 816 169 L 820 169 L 820 168 L 825 168 L 825 167 L 830 167 L 830 166 L 835 166 L 835 165 L 840 165 L 840 164 L 845 164 L 845 163 L 850 163 L 850 162 L 857 162 L 857 161 L 863 161 L 863 160 L 869 160 L 869 159 L 877 159 L 877 158 L 885 158 L 885 157 L 895 157 L 895 156 L 907 156 L 907 155 L 923 155 L 923 154 L 994 154 L 994 155 L 1011 155 L 1011 156 L 1021 156 L 1021 157 L 1031 157 L 1031 158 L 1041 158 L 1041 159 L 1048 159 L 1048 160 L 1054 160 L 1054 161 L 1061 161 L 1061 162 L 1067 162 L 1067 163 L 1074 163 L 1074 164 L 1079 164 L 1079 165 L 1084 165 L 1084 166 L 1088 166 L 1088 167 L 1093 167 L 1093 168 L 1098 168 L 1098 169 L 1103 169 L 1103 170 L 1108 170 L 1108 171 L 1112 171 L 1112 172 L 1116 172 L 1116 173 L 1120 173 L 1120 174 L 1123 174 L 1123 175 L 1127 175 L 1127 176 L 1131 176 L 1131 177 L 1135 177 L 1135 178 L 1138 178 L 1138 179 L 1142 179 L 1142 180 L 1145 180 L 1145 181 L 1148 181 L 1148 182 L 1151 182 L 1151 183 L 1154 183 L 1154 184 L 1157 184 L 1157 185 L 1160 185 L 1160 186 L 1163 186 L 1163 187 L 1166 187 L 1166 188 L 1169 188 L 1169 189 L 1172 189 L 1172 190 L 1175 190 L 1175 191 L 1178 191 L 1178 192 L 1180 192 L 1180 193 L 1183 193 L 1183 194 L 1185 194 L 1185 195 L 1188 195 L 1188 196 L 1191 196 L 1191 197 L 1193 197 L 1193 198 L 1196 198 L 1196 199 L 1199 199 L 1199 200 L 1201 200 L 1201 201 L 1204 201 L 1204 202 L 1206 202 L 1206 203 L 1208 203 L 1208 204 L 1210 204 L 1210 205 L 1213 205 L 1213 206 L 1215 206 L 1215 207 L 1217 207 L 1217 208 L 1219 208 L 1219 209 L 1222 209 L 1222 210 L 1224 210 L 1224 211 L 1226 211 L 1226 212 L 1228 212 L 1228 213 L 1231 213 L 1231 214 L 1233 214 L 1233 215 L 1235 215 L 1235 216 L 1237 216 L 1237 217 L 1239 217 L 1239 218 L 1241 218 L 1241 219 L 1243 219 L 1243 220 L 1245 220 L 1245 221 L 1247 221 L 1247 222 L 1249 222 L 1249 223 L 1251 223 L 1251 224 L 1253 224 L 1253 225 L 1255 225 L 1255 226 L 1257 226 L 1257 227 L 1259 227 L 1259 228 L 1261 228 L 1261 229 L 1263 229 L 1263 230 L 1265 230 L 1265 231 L 1266 231 L 1266 232 L 1268 232 L 1268 233 L 1270 233 L 1270 234 L 1272 234 L 1272 235 L 1273 235 L 1273 236 L 1275 236 L 1275 237 L 1277 237 L 1277 238 L 1279 238 L 1279 239 L 1280 239 L 1280 240 L 1282 240 L 1282 241 L 1284 241 L 1284 242 L 1285 242 L 1285 243 L 1287 243 L 1287 244 L 1289 244 L 1289 245 L 1291 245 L 1291 246 L 1292 246 L 1292 247 L 1294 247 L 1294 248 L 1296 248 L 1296 249 L 1297 249 L 1297 250 L 1299 250 L 1299 251 L 1300 251 L 1300 252 L 1302 252 L 1302 253 L 1303 253 L 1303 254 L 1305 254 L 1305 255 L 1306 255 L 1306 256 L 1308 256 L 1308 257 L 1310 257 L 1310 258 L 1311 258 L 1311 259 L 1313 259 L 1313 260 L 1314 260 L 1314 261 L 1316 261 L 1316 262 L 1317 262 L 1317 263 L 1319 263 L 1319 264 L 1320 264 L 1320 265 L 1322 265 L 1322 266 L 1323 266 L 1323 267 L 1325 267 L 1325 268 L 1326 268 L 1326 269 L 1327 269 L 1327 270 L 1329 270 L 1329 271 L 1330 271 L 1330 272 L 1332 272 L 1332 273 L 1333 273 L 1333 274 L 1334 274 L 1334 275 L 1336 275 L 1336 276 L 1337 276 L 1337 277 L 1338 277 L 1338 278 L 1340 278 L 1340 279 L 1341 279 L 1341 280 L 1343 280 L 1343 281 L 1344 281 L 1344 282 L 1345 282 L 1345 283 L 1347 283 L 1347 284 L 1348 284 L 1348 285 L 1349 285 L 1349 286 L 1351 286 L 1351 287 L 1352 287 L 1352 288 L 1353 288 L 1353 289 L 1355 289 L 1355 290 L 1356 290 L 1356 291 L 1357 291 L 1357 292 L 1358 292 L 1358 293 L 1359 293 L 1359 294 L 1361 294 L 1361 295 L 1362 295 L 1362 296 L 1363 296 L 1363 297 L 1364 297 L 1364 298 L 1366 298 L 1366 299 L 1367 299 L 1367 300 L 1368 300 L 1368 301 L 1369 301 L 1369 302 L 1371 302 L 1371 303 L 1372 303 L 1372 304 L 1373 304 L 1373 305 L 1374 305 L 1374 306 L 1375 306 L 1375 307 L 1377 307 L 1377 308 L 1378 308 L 1378 309 L 1379 309 L 1379 310 L 1380 310 L 1380 311 L 1381 311 L 1381 312 L 1382 312 L 1382 313 L 1384 313 L 1384 314 L 1385 314 L 1385 315 L 1386 315 L 1386 316 L 1387 316 L 1387 317 L 1388 317 L 1388 318 L 1389 318 L 1389 319 L 1390 319 L 1390 320 L 1391 320 L 1391 321 L 1392 321 L 1392 322 L 1393 322 L 1393 323 L 1394 323 L 1394 324 L 1396 324 L 1396 325 L 1397 325 L 1397 326 L 1398 326 L 1398 327 L 1399 327 L 1399 328 L 1400 328 L 1400 329 L 1401 329 L 1401 330 L 1402 330 L 1402 331 L 1403 331 L 1403 332 L 1404 332 L 1404 333 L 1405 333 L 1405 334 L 1406 334 L 1406 335 L 1407 335 L 1407 336 L 1408 336 L 1408 337 L 1409 337 L 1409 338 L 1410 338 L 1410 339 L 1411 339 L 1411 340 L 1412 340 L 1412 341 L 1413 341 L 1413 342 L 1414 342 L 1414 343 L 1415 343 L 1415 344 L 1416 344 L 1416 345 L 1417 345 L 1417 346 L 1418 346 L 1418 347 L 1419 347 L 1419 348 L 1420 348 L 1420 349 L 1421 349 L 1421 350 L 1422 350 L 1422 351 L 1423 351 L 1423 352 L 1424 352 L 1424 353 L 1425 353 L 1425 354 L 1426 354 L 1426 355 L 1427 355 L 1427 356 L 1428 356 L 1428 357 L 1429 357 L 1429 358 L 1430 358 L 1430 360 L 1431 360 L 1431 361 L 1432 361 L 1432 362 L 1433 362 L 1433 363 L 1434 363 L 1434 364 L 1435 364 L 1435 365 L 1436 365 L 1436 366 L 1437 366 L 1437 367 L 1438 367 L 1438 369 L 1439 369 L 1439 370 L 1440 370 L 1440 371 L 1441 371 L 1441 372 L 1442 372 L 1442 373 L 1443 373 L 1443 374 L 1444 374 L 1444 375 L 1445 375 L 1445 376 L 1446 376 L 1446 378 L 1447 378 L 1447 379 L 1448 379 L 1448 380 L 1449 380 L 1449 381 L 1450 381 L 1450 382 L 1451 382 L 1451 383 L 1452 383 L 1452 385 L 1453 385 L 1453 386 L 1454 386 L 1454 387 L 1455 387 L 1455 388 L 1456 388 L 1456 390 L 1457 390 L 1457 391 L 1458 391 L 1458 392 L 1459 392 L 1459 393 L 1460 393 L 1460 395 L 1461 395 L 1461 396 L 1462 396 L 1462 397 L 1463 397 L 1463 398 L 1464 398 L 1464 400 L 1465 400 L 1465 401 L 1466 401 L 1466 402 L 1467 402 L 1467 403 L 1468 403 L 1468 405 L 1469 405 L 1469 406 L 1470 406 L 1470 407 L 1471 407 L 1471 409 L 1472 409 L 1472 410 L 1473 410 L 1473 411 L 1474 411 L 1474 413 L 1475 413 L 1475 414 L 1476 414 L 1476 415 L 1477 415 L 1477 417 L 1478 417 L 1478 418 L 1479 418 L 1479 420 L 1480 420 L 1480 421 L 1481 421 L 1481 422 L 1482 422 L 1482 424 L 1483 424 L 1483 425 L 1484 425 L 1484 427 L 1485 427 L 1485 428 L 1486 428 L 1486 429 L 1487 429 L 1487 431 L 1488 431 L 1488 432 L 1489 432 L 1489 434 L 1490 434 L 1490 435 L 1491 435 L 1491 436 L 1492 436 L 1492 438 L 1493 438 L 1493 439 L 1494 439 L 1494 441 L 1495 441 L 1495 442 L 1496 442 L 1496 444 L 1497 444 L 1497 446 L 1498 446 L 1498 447 L 1499 447 L 1499 449 L 1500 449 L 1500 450 L 1501 450 L 1501 452 L 1502 452 L 1502 454 L 1503 454 L 1503 455 L 1504 455 L 1504 457 L 1505 457 L 1505 458 L 1506 458 L 1506 460 L 1507 460 L 1507 461 L 1508 461 L 1508 463 L 1509 463 L 1509 465 L 1510 465 L 1510 466 L 1511 466 L 1511 468 L 1512 468 L 1512 469 L 1513 469 L 1513 471 L 1514 471 L 1514 473 L 1515 473 L 1515 475 L 1516 475 L 1516 476 L 1517 476 L 1517 478 L 1518 478 L 1518 480 L 1519 480 L 1519 482 L 1520 482 L 1520 484 L 1521 484 L 1521 485 L 1522 485 L 1522 487 L 1523 487 L 1523 489 L 1524 489 L 1524 491 L 1525 491 L 1525 492 L 1526 492 L 1526 494 L 1527 494 L 1527 496 L 1528 496 L 1528 498 L 1529 498 L 1529 500 L 1530 500 L 1530 502 L 1531 502 L 1531 504 L 1532 504 L 1532 506 L 1533 506 L 1533 508 L 1534 508 L 1534 510 L 1535 510 L 1535 511 L 1536 511 L 1536 513 L 1537 513 L 1537 515 L 1538 515 L 1538 517 L 1539 517 L 1539 519 L 1540 519 L 1540 521 L 1541 521 L 1541 523 L 1542 523 L 1542 526 L 1543 526 L 1543 528 L 1544 528 L 1544 530 L 1545 530 L 1545 532 L 1546 532 L 1546 534 L 1547 534 L 1547 536 L 1548 536 L 1548 539 L 1549 539 L 1549 541 L 1550 541 L 1550 543 L 1551 543 L 1551 546 L 1552 546 L 1552 548 L 1553 548 L 1553 551 L 1554 551 L 1554 553 L 1555 553 L 1555 555 L 1556 555 L 1556 558 L 1557 558 L 1557 560 L 1558 560 L 1558 563 L 1559 563 L 1559 565 L 1560 565 L 1560 568 L 1561 568 L 1561 570 L 1562 570 L 1562 573 L 1563 573 L 1563 576 L 1564 576 L 1564 579 L 1565 579 L 1565 582 L 1566 582 L 1566 585 L 1567 585 L 1567 588 L 1568 588 L 1568 590 L 1569 590 L 1569 593 L 1570 593 L 1570 596 L 1571 596 L 1571 599 L 1572 599 L 1572 602 L 1573 602 L 1573 605 L 1574 605 L 1574 608 L 1575 608 L 1575 611 L 1576 611 L 1576 615 L 1577 615 L 1577 619 L 1578 619 L 1578 622 L 1579 622 L 1579 626 L 1580 626 L 1580 629 L 1581 629 L 1581 633 L 1582 633 L 1582 636 L 1583 636 L 1583 640 L 1584 640 L 1584 643 L 1585 643 L 1585 647 L 1586 647 L 1586 652 L 1587 652 L 1587 656 L 1588 656 L 1588 660 L 1589 660 L 1589 665 L 1590 665 L 1590 669 L 1591 669 L 1591 674 L 1592 674 L 1592 678 L 1593 678 L 1593 684 L 1594 684 L 1594 686 L 1597 686 L 1597 682 L 1596 682 L 1596 675 L 1595 675 L 1595 669 L 1594 669 L 1594 664 L 1593 664 L 1593 659 L 1592 659 L 1592 655 L 1591 655 L 1591 650 L 1590 650 L 1590 645 L 1589 645 L 1589 640 L 1588 640 L 1588 635 L 1587 635 L 1587 630 L 1586 630 L 1586 626 L 1585 626 L 1585 622 L 1584 622 L 1584 618 L 1583 618 L 1583 614 L 1582 614 L 1582 611 L 1581 611 L 1581 607 L 1580 607 L 1580 603 L 1579 603 L 1579 599 L 1578 599 L 1578 595 L 1577 595 L 1577 592 L 1576 592 L 1576 588 L 1575 588 L 1575 584 L 1574 584 L 1574 580 L 1573 580 L 1573 576 L 1572 576 L 1572 573 L 1571 573 L 1571 570 L 1570 570 L 1570 567 L 1569 567 L 1569 564 L 1568 564 L 1568 561 L 1567 561 L 1567 558 L 1566 558 L 1566 555 L 1565 555 L 1565 552 L 1564 552 L 1564 550 L 1563 550 L 1563 547 L 1562 547 L 1562 544 L 1561 544 L 1561 541 L 1560 541 L 1560 538 L 1559 538 L 1559 535 L 1558 535 L 1558 532 L 1557 532 L 1557 529 L 1556 529 L 1556 526 L 1555 526 L 1555 523 L 1554 523 L 1554 520 L 1553 520 L 1553 518 L 1552 518 L 1552 516 L 1551 516 L 1551 513 L 1550 513 L 1550 511 L 1549 511 L 1549 508 L 1548 508 L 1548 506 L 1547 506 L 1547 504 L 1546 504 L 1546 501 L 1545 501 L 1545 499 L 1544 499 L 1544 496 L 1543 496 L 1543 494 L 1542 494 L 1542 492 L 1541 492 L 1541 489 L 1540 489 L 1540 487 L 1539 487 L 1539 484 L 1538 484 L 1538 482 L 1537 482 L 1537 480 L 1536 480 L 1536 477 L 1535 477 L 1535 475 L 1534 475 L 1534 472 L 1533 472 L 1533 470 L 1532 470 L 1532 468 L 1531 468 L 1531 466 L 1530 466 L 1530 464 L 1529 464 L 1529 462 L 1528 462 L 1528 460 L 1527 460 L 1527 458 L 1526 458 L 1526 456 L 1525 456 L 1525 454 L 1524 454 L 1524 452 L 1523 452 L 1523 450 L 1522 450 L 1522 448 L 1521 448 L 1521 446 L 1520 446 L 1520 444 L 1519 444 L 1519 442 L 1518 442 L 1518 440 L 1517 440 L 1517 438 L 1516 438 L 1516 436 L 1515 436 L 1515 434 L 1514 434 L 1514 432 L 1513 432 L 1513 430 L 1512 430 L 1512 428 L 1511 428 L 1511 426 L 1510 426 L 1510 424 L 1509 424 L 1509 422 L 1508 422 L 1508 420 L 1507 420 L 1507 418 L 1506 418 L 1506 417 L 1505 417 L 1505 415 L 1504 415 L 1504 413 L 1503 413 L 1503 412 L 1502 412 L 1502 410 L 1501 410 L 1501 408 L 1500 408 L 1500 407 L 1499 407 L 1499 405 L 1498 405 L 1498 403 L 1497 403 L 1497 402 L 1496 402 L 1496 400 L 1495 400 L 1495 398 L 1494 398 L 1494 397 L 1493 397 L 1493 395 L 1492 395 L 1492 393 L 1491 393 L 1491 392 L 1490 392 L 1490 390 L 1489 390 L 1489 388 L 1488 388 L 1488 386 L 1487 386 L 1487 385 L 1486 385 L 1486 383 L 1485 383 L 1485 381 L 1484 381 L 1484 380 L 1483 380 L 1483 378 L 1482 378 L 1482 376 L 1481 376 L 1481 375 L 1480 375 L 1480 373 L 1479 373 L 1479 371 L 1478 371 L 1478 370 L 1477 370 L 1477 368 L 1476 368 L 1476 367 L 1475 367 L 1475 365 L 1474 365 L 1474 364 L 1473 364 L 1473 362 L 1472 362 L 1472 361 L 1471 361 L 1471 360 L 1470 360 L 1470 358 L 1469 358 L 1469 357 L 1468 357 L 1468 355 L 1467 355 L 1467 354 L 1466 354 L 1466 352 L 1465 352 L 1465 351 L 1464 351 L 1464 350 L 1463 350 L 1463 348 L 1462 348 L 1462 347 L 1461 347 L 1461 345 L 1460 345 L 1460 344 L 1459 344 L 1459 342 L 1458 342 L 1458 341 L 1457 341 L 1457 339 L 1456 339 L 1456 338 L 1455 338 L 1455 337 L 1454 337 L 1454 335 L 1453 335 L 1453 334 L 1452 334 L 1452 332 L 1451 332 L 1451 331 L 1450 331 L 1450 329 L 1449 329 L 1449 328 L 1448 328 L 1448 327 L 1447 327 L 1447 325 L 1446 325 L 1446 324 L 1445 324 L 1445 322 L 1444 322 L 1444 321 L 1443 321 L 1443 320 L 1442 320 L 1442 318 L 1441 318 L 1441 317 L 1440 317 L 1440 316 L 1439 316 L 1439 315 L 1438 315 L 1438 313 L 1437 313 L 1437 312 L 1436 312 L 1436 311 L 1435 311 L 1435 310 L 1434 310 L 1434 308 L 1433 308 L 1433 307 L 1432 307 L 1432 306 L 1431 306 L 1431 305 L 1430 305 L 1430 303 L 1429 303 L 1429 302 L 1428 302 L 1428 301 L 1427 301 L 1427 299 L 1426 299 L 1426 298 L 1425 298 L 1425 297 L 1424 297 L 1424 296 L 1423 296 L 1423 294 L 1422 294 L 1422 293 L 1421 293 L 1421 292 L 1420 292 L 1420 291 L 1419 291 L 1419 289 L 1418 289 L 1418 288 L 1417 288 L 1417 287 L 1416 287 L 1416 286 L 1415 286 L 1415 285 L 1414 285 L 1414 284 L 1413 284 L 1413 282 L 1412 282 L 1412 281 L 1411 281 L 1411 280 L 1410 280 L 1410 279 L 1409 279 L 1409 278 L 1408 278 L 1408 277 L 1407 277 L 1407 275 L 1406 275 L 1406 274 L 1405 274 L 1405 273 L 1404 273 L 1404 272 L 1403 272 L 1403 271 L 1402 271 L 1402 270 L 1401 270 L 1401 269 L 1400 269 L 1400 268 L 1399 268 L 1399 267 L 1398 267 L 1398 266 L 1397 266 L 1397 264 L 1396 264 L 1396 263 L 1395 263 L 1395 262 L 1394 262 L 1394 261 L 1393 261 L 1393 260 L 1392 260 L 1392 259 L 1391 259 L 1391 258 L 1390 258 L 1390 257 L 1389 257 L 1389 256 L 1388 256 L 1388 255 L 1387 255 L 1387 254 L 1386 254 L 1386 253 L 1385 253 L 1385 251 L 1384 251 L 1384 250 L 1383 250 L 1383 249 L 1382 249 L 1382 248 L 1381 248 L 1381 247 L 1380 247 L 1380 246 L 1379 246 L 1379 245 L 1378 245 L 1378 244 L 1377 244 L 1377 243 L 1376 243 L 1376 242 L 1375 242 L 1375 241 L 1374 241 L 1374 240 L 1373 240 L 1373 239 L 1372 239 L 1372 238 L 1371 238 L 1371 237 L 1370 237 L 1370 236 L 1369 236 L 1369 235 L 1368 235 L 1368 234 L 1367 234 L 1367 233 L 1366 233 L 1366 232 L 1365 232 L 1365 231 L 1364 231 L 1364 230 L 1363 230 L 1363 229 L 1362 229 L 1362 228 L 1361 228 L 1361 227 L 1360 227 L 1360 226 L 1359 226 L 1359 225 L 1358 225 L 1358 224 L 1357 224 L 1357 223 L 1355 223 L 1355 222 L 1354 222 L 1354 221 L 1353 221 L 1353 220 L 1352 220 L 1352 219 L 1351 219 L 1351 218 L 1350 218 L 1350 217 L 1349 217 L 1349 216 L 1348 216 L 1348 215 L 1347 215 L 1347 214 L 1346 214 L 1346 213 L 1345 213 L 1345 212 L 1343 212 L 1343 211 L 1342 211 L 1342 210 L 1341 210 L 1341 209 L 1340 209 L 1340 208 L 1339 208 L 1339 207 L 1338 207 L 1338 206 L 1337 206 L 1337 205 L 1336 205 L 1336 204 L 1335 204 L 1335 203 L 1334 203 L 1334 202 L 1333 202 L 1333 201 L 1331 201 L 1331 200 L 1330 200 L 1330 199 L 1329 199 L 1329 198 L 1328 198 L 1328 197 L 1327 197 L 1327 196 L 1326 196 L 1326 195 L 1324 195 L 1324 194 L 1323 194 L 1323 193 L 1322 193 L 1322 192 L 1321 192 L 1321 191 L 1320 191 L 1320 190 L 1318 190 L 1318 189 L 1317 189 L 1317 188 L 1316 188 L 1316 187 L 1315 187 L 1315 186 L 1314 186 L 1314 185 L 1312 185 L 1312 184 L 1311 184 L 1311 183 L 1310 183 L 1310 182 L 1309 182 L 1309 181 L 1308 181 L 1308 180 L 1306 180 L 1306 179 L 1305 179 L 1305 178 L 1304 178 L 1304 177 L 1303 177 L 1303 176 L 1302 176 L 1302 175 L 1300 175 L 1300 174 L 1299 174 L 1299 173 L 1298 173 L 1298 172 L 1296 172 L 1296 171 L 1295 171 L 1295 170 L 1294 170 L 1294 169 L 1292 169 L 1292 168 L 1291 168 L 1291 167 L 1290 167 L 1290 166 L 1289 166 L 1289 165 L 1287 165 L 1287 164 L 1286 164 L 1286 163 L 1285 163 L 1285 162 L 1283 162 L 1283 161 L 1282 161 L 1282 160 L 1281 160 L 1281 159 L 1279 159 L 1279 158 L 1278 158 L 1278 157 L 1277 157 L 1277 156 L 1275 156 L 1275 155 L 1274 155 L 1274 154 L 1273 154 L 1273 153 L 1271 153 L 1271 152 L 1270 152 L 1270 151 L 1269 151 L 1269 150 L 1267 150 L 1267 149 L 1266 149 L 1266 148 L 1264 148 L 1264 147 L 1263 147 L 1263 146 L 1261 146 L 1261 145 L 1260 145 L 1260 144 L 1258 144 L 1258 143 L 1257 143 L 1257 142 L 1256 142 L 1256 141 L 1254 141 L 1254 140 L 1253 140 L 1253 139 L 1251 139 L 1251 138 L 1250 138 L 1250 137 L 1248 137 L 1248 136 L 1247 136 L 1247 135 L 1245 135 L 1245 134 L 1244 134 L 1244 133 L 1242 133 L 1242 132 L 1241 132 L 1241 131 L 1239 131 L 1239 130 L 1238 130 L 1238 129 L 1236 129 L 1236 128 L 1235 128 L 1235 127 L 1233 127 L 1233 126 L 1231 126 L 1231 125 L 1230 125 L 1230 124 L 1228 124 L 1228 123 L 1227 123 L 1227 122 L 1225 122 L 1225 121 L 1223 121 L 1223 120 L 1222 120 L 1222 119 L 1220 119 L 1220 118 L 1219 118 L 1219 117 L 1217 117 L 1217 116 L 1215 116 L 1215 115 L 1214 115 L 1214 114 L 1212 114 L 1212 113 L 1211 113 L 1211 112 L 1209 112 L 1209 111 L 1207 111 L 1207 110 L 1205 110 L 1205 109 L 1204 109 L 1204 108 L 1202 108 L 1202 107 L 1200 107 L 1200 106 L 1198 106 L 1198 105 L 1197 105 L 1197 104 L 1195 104 L 1195 103 L 1193 103 L 1193 102 L 1191 102 L 1191 101 L 1190 101 L 1190 100 L 1188 100 L 1188 99 L 1186 99 L 1186 98 L 1184 98 L 1184 97 L 1183 97 L 1183 96 L 1181 96 L 1181 95 L 1179 95 L 1179 94 L 1177 94 L 1177 93 L 1175 93 L 1175 92 L 1173 92 L 1173 91 L 1171 91 L 1171 90 L 1169 90 L 1169 89 L 1168 89 L 1168 88 L 1165 88 L 1165 87 L 1163 87 L 1163 86 L 1161 86 L 1161 85 L 1159 85 L 1159 84 L 1157 84 L 1157 83 L 1155 83 L 1155 82 L 1153 82 L 1153 81 L 1151 81 L 1151 80 L 1149 80 L 1149 79 L 1147 79 L 1147 78 L 1145 78 L 1145 77 L 1143 77 L 1143 76 L 1141 76 L 1141 75 L 1139 75 L 1139 74 L 1137 74 L 1137 73 L 1134 73 L 1134 72 L 1132 72 L 1132 71 L 1130 71 L 1130 70 L 1128 70 L 1128 69 L 1125 69 L 1125 68 L 1123 68 L 1123 67 L 1121 67 L 1121 66 L 1119 66 L 1119 65 L 1116 65 L 1116 64 L 1114 64 L 1114 63 L 1112 63 L 1112 62 L 1109 62 L 1109 61 L 1107 61 L 1107 60 L 1105 60 L 1105 59 L 1102 59 L 1102 58 L 1100 58 L 1100 57 L 1097 57 L 1097 56 L 1094 56 L 1094 55 L 1092 55 L 1092 54 L 1089 54 L 1089 53 L 1087 53 L 1087 52 L 1084 52 L 1084 51 L 1081 51 L 1081 50 L 1079 50 L 1079 49 L 1076 49 L 1076 48 L 1074 48 L 1074 47 L 1071 47 L 1071 46 L 1068 46 L 1068 45 L 1065 45 L 1065 44 L 1062 44 L 1062 43 L 1059 43 L 1059 42 L 1056 42 L 1056 41 L 1053 41 L 1053 40 L 1050 40 L 1050 39 L 1047 39 L 1047 38 L 1044 38 L 1044 37 L 1041 37 L 1041 36 L 1038 36 L 1038 35 L 1035 35 L 1035 34 L 1032 34 L 1032 33 L 1028 33 L 1028 32 L 1025 32 L 1025 31 L 1021 31 L 1021 30 L 1017 30 L 1017 29 L 1014 29 L 1014 28 L 1010 28 L 1010 27 L 1007 27 L 1007 26 L 1003 26 L 1003 25 L 1000 25 L 1000 24 L 996 24 L 996 23 L 991 23 L 991 22 L 987 22 L 987 21 L 983 21 L 983 20 L 978 20 L 978 19 L 974 19 L 974 18 L 969 18 L 969 17 L 965 17 L 965 16 L 961 16 L 961 15 L 956 15 L 956 14 L 950 14 L 950 13 L 944 13 L 944 12 L 939 12 L 939 11 L 933 11 L 933 10 L 927 10 L 927 9 L 922 9 L 922 8 L 915 8 L 915 7 L 907 7 L 907 6 L 900 6 L 900 5 L 892 5 L 892 4 L 883 4 L 883 3 L 872 3 L 872 2 L 858 2 L 858 1 L 842 1 L 842 0" stroke-linecap="round" />
</g>
</g>
</g>
</svg>