<?xml version="1.0" standalone="no"?>
<!DOCTYPE svg PUBLIC "-//W3C//DTD SVG 20010904//EN"
 "http://www.w3.org/TR/2001/REC-SVG-20010904/DTD/svg10.dtd">
<svg version="1.0" xmlns="http://www.w3.org/2000/svg"
 width="1293.000000pt" height="1293.000000pt" viewBox="0 0 1293.000000 1293.000000"
 preserveAspectRatio="xMidYMid meet">
<metadata>
Created by potrace 1.14, written by Peter Selinger 2001-2017
</metadata>
<g transform="translate(0.000000,1293.000000) scale(0.100000,-0.100000)"
fill="#000000" stroke="none">
<path d="M5985 12913 c-77 -7 -165 -14 -195 -17 -30 -2 -55 -5 -55 -6 0 -1
-16 -4 -36 -5 -40 -3 -203 -25 -234 -32 -11 -2 -38 -6 -59 -9 -21 -2 -66 -10
-100 -18 -34 -7 -68 -14 -76 -14 -19 -1 -64 -10 -115 -24 -22 -6 -51 -12 -65
-13 -14 -2 -25 -4 -25 -5 0 -1 -7 -3 -16 -5 -8 -1 -71 -17 -140 -35 -68 -17
-131 -33 -139 -35 -8 -2 -15 -4 -15 -5 0 -1 -7 -3 -15 -5 -8 -1 -62 -17 -120
-36 -58 -18 -107 -33 -110 -34 -13 -3 -58 -19 -85 -30 -16 -6 -55 -20 -85 -30
-30 -10 -61 -22 -67 -28 -7 -5 -13 -7 -13 -3 0 4 -19 -3 -42 -15 -24 -12 -43
-21 -43 -20 0 2 -28 -8 -80 -30 -16 -6 -34 -13 -40 -14 -26 -6 -302 -135 -445
-209 -220 -112 -235 -121 -238 -128 -2 -5 -8 -8 -13 -8 -5 0 -45 -22 -89 -50
-44 -27 -82 -50 -86 -50 -9 0 -359 -234 -362 -242 -2 -5 -10 -8 -18 -8 -8 0
-14 -4 -14 -8 0 -4 -12 -15 -27 -24 -16 -9 -39 -26 -53 -37 -14 -11 -79 -62
-146 -114 -66 -51 -133 -105 -150 -119 -16 -14 -65 -56 -109 -94 -154 -131
-549 -526 -585 -583 -8 -15 -92 -111 -127 -148 -13 -13 -23 -28 -23 -33 0 -6
-3 -10 -7 -10 -5 0 -33 -34 -63 -75 -30 -41 -58 -75 -63 -75 -4 0 -5 -4 -2
-10 3 -5 2 -10 -2 -10 -17 0 -191 -248 -349 -498 -57 -90 -104 -165 -104 -168
0 -2 -33 -63 -73 -136 -65 -117 -208 -400 -245 -483 -28 -63 -125 -301 -133
-325 -4 -14 -19 -56 -34 -95 -14 -38 -27 -74 -28 -80 -7 -24 -30 -91 -36 -100
-3 -5 -6 -14 -7 -20 -1 -5 -11 -41 -24 -80 -12 -38 -23 -77 -25 -86 -2 -9 -10
-37 -19 -62 -8 -25 -18 -56 -20 -69 -3 -13 -12 -47 -20 -75 -8 -29 -12 -53 -9
-53 3 0 0 -7 -7 -15 -7 -9 -10 -18 -7 -21 3 -3 -1 -23 -8 -44 -7 -21 -16 -55
-20 -76 -3 -21 -12 -63 -20 -94 -7 -30 -16 -71 -18 -90 -3 -19 -6 -35 -7 -35
-1 0 -3 -12 -5 -28 -2 -15 -8 -51 -14 -80 -6 -28 -13 -65 -17 -82 -3 -16 -7
-50 -9 -75 -3 -25 -9 -76 -16 -114 -12 -71 -15 -103 -24 -216 -3 -36 -11 -130
-18 -209 -16 -175 -15 -761 2 -911 6 -58 13 -135 15 -171 2 -37 6 -71 10 -78
4 -6 5 -14 3 -18 -3 -5 1 -48 9 -98 9 -49 17 -108 19 -130 2 -22 4 -40 5 -40
1 0 3 -16 6 -35 2 -19 8 -57 14 -85 9 -49 14 -72 25 -130 3 -16 17 -82 31
-145 15 -63 30 -133 35 -155 11 -49 17 -70 19 -70 1 0 3 -9 5 -20 5 -35 75
-279 94 -327 6 -16 8 -28 5 -28 -4 0 -1 -7 6 -15 7 -8 10 -15 7 -15 -4 0 2
-20 13 -45 11 -25 20 -49 21 -53 3 -13 11 -37 24 -72 19 -51 49 -134 51 -140
1 -7 13 -37 32 -80 8 -19 16 -37 16 -40 2 -11 50 -126 60 -145 5 -11 11 -24
12 -30 1 -5 37 -82 79 -170 43 -88 77 -163 77 -167 -1 -5 2 -8 8 -8 5 0 10 -5
10 -11 0 -6 9 -23 19 -37 10 -15 20 -31 21 -37 2 -5 9 -19 16 -30 20 -31 83
-147 95 -175 6 -14 20 -35 31 -48 12 -12 18 -22 14 -22 -4 0 4 -15 18 -33 15
-19 26 -37 26 -41 0 -4 8 -19 19 -34 58 -84 141 -215 141 -223 0 -5 4 -9 8 -9
4 0 28 -30 52 -67 24 -38 47 -70 50 -73 3 -3 20 -25 37 -50 17 -25 45 -60 62
-79 17 -19 31 -41 31 -48 0 -7 4 -13 9 -13 5 0 26 -23 46 -52 44 -61 50 -67
95 -116 19 -21 55 -62 80 -92 77 -92 111 -130 227 -246 61 -62 109 -115 106
-118 -4 -3 -1 -6 5 -6 6 0 42 -30 79 -67 71 -70 207 -192 282 -253 24 -19 55
-46 70 -59 14 -13 51 -42 81 -65 30 -22 57 -43 60 -46 3 -3 48 -37 100 -75 52
-38 97 -71 100 -74 11 -13 301 -203 400 -261 58 -35 108 -68 112 -74 4 -6 8
-7 8 -2 0 5 9 1 19 -8 11 -10 25 -18 33 -20 7 -1 36 -15 63 -31 87 -50 316
-165 331 -165 8 0 14 -4 14 -10 0 -5 5 -10 10 -10 6 0 41 -15 78 -33 37 -18
70 -34 74 -36 4 -1 25 -9 45 -17 40 -16 48 -19 128 -52 28 -11 82 -33 120 -47
39 -14 79 -30 90 -36 11 -5 31 -12 45 -14 14 -3 26 -9 28 -15 2 -6 7 -8 12 -5
5 3 21 0 37 -7 15 -6 30 -12 33 -13 3 -1 12 -4 20 -8 29 -11 215 -66 240 -71
14 -2 50 -12 80 -22 30 -9 62 -18 70 -19 8 -2 17 -4 20 -5 3 -1 10 -3 15 -4 6
-1 24 -5 40 -9 17 -4 39 -9 50 -12 11 -2 61 -14 110 -26 50 -11 101 -22 115
-24 14 -2 25 -4 25 -5 0 -1 16 -3 35 -6 19 -2 60 -9 90 -15 57 -12 63 -13 140
-24 44 -6 127 -17 225 -31 28 -4 64 -8 80 -9 17 -1 30 -3 30 -4 0 -1 36 -3 80
-6 44 -2 114 -8 155 -11 95 -9 703 -9 835 0 173 11 242 18 340 31 17 2 53 7
80 10 28 3 75 10 105 15 30 5 71 12 90 15 19 3 58 10 85 15 28 5 68 13 90 16
46 7 36 5 140 28 44 10 87 20 95 23 8 3 20 7 25 7 47 6 145 31 145 38 0 5 4 7
8 4 5 -3 38 4 73 15 35 11 73 22 84 23 11 2 31 8 45 14 14 5 28 10 33 11 4 0
8 1 10 2 1 0 9 2 17 4 8 2 62 20 120 40 58 20 112 38 120 40 8 2 51 17 95 35
44 18 114 44 155 60 41 15 93 36 115 46 22 10 42 18 45 19 3 0 20 9 37 18 18
10 35 17 38 16 9 -1 438 212 468 233 15 11 27 16 27 12 0 -4 8 0 18 8 9 9 34
25 55 37 83 47 107 61 217 130 140 87 132 82 200 130 30 22 75 52 100 67 25
15 49 33 53 41 4 7 15 13 22 13 8 0 15 5 15 10 0 6 5 10 10 10 6 0 18 8 28 18
10 9 31 26 46 37 15 11 40 30 55 42 14 12 61 49 104 83 98 77 126 100 146 123
8 9 19 17 23 17 4 0 18 10 30 23 13 12 66 60 117 107 179 163 418 408 527 540
16 19 38 45 49 56 25 27 39 44 99 124 27 36 57 73 65 82 9 9 21 23 28 31 14
17 129 178 163 229 14 20 60 88 103 151 42 63 77 117 77 121 0 4 5 12 10 19 6
7 46 73 90 147 43 74 83 140 87 145 18 23 224 446 258 530 20 50 47 114 61
143 13 29 24 56 24 61 0 4 8 23 17 42 10 19 18 39 19 44 1 6 11 33 22 61 12
29 18 55 15 58 -4 3 0 6 7 6 7 0 11 3 7 6 -3 3 3 28 13 54 10 26 16 51 13 54
-4 3 -2 6 4 6 5 0 10 6 11 13 0 6 15 53 32 102 18 50 33 99 35 110 1 11 10 45
20 75 9 30 19 66 21 80 3 14 21 84 39 155 19 72 36 144 39 160 9 47 15 75 28
135 7 30 13 60 14 65 1 6 3 12 4 15 2 7 8 39 15 90 4 25 9 55 12 68 4 16 1 22
-11 22 -9 0 -16 -7 -16 -15 0 -19 1 -13 -17 -87 -8 -35 -17 -72 -19 -83 -3
-11 -7 -31 -9 -45 -2 -14 -18 -74 -35 -135 -47 -166 -50 -178 -56 -204 -3 -13
-11 -39 -19 -57 -8 -19 -12 -34 -10 -34 3 0 -5 -24 -16 -52 -12 -29 -22 -60
-24 -68 -2 -8 -13 -39 -24 -68 -10 -28 -17 -52 -15 -52 2 0 -7 -22 -21 -50
-14 -27 -23 -50 -20 -50 3 0 -2 -15 -12 -32 -9 -18 -18 -35 -18 -38 -5 -19
-27 -69 -80 -185 -46 -99 -51 -109 -108 -215 -26 -47 -52 -96 -58 -110 -6 -14
-17 -32 -25 -42 -9 -9 -16 -22 -17 -30 -2 -7 -10 -24 -20 -38 -9 -13 -17 -30
-17 -37 0 -7 -4 -13 -8 -13 -5 0 -15 -12 -22 -28 -8 -15 -24 -40 -35 -57 -12
-16 -35 -52 -51 -80 -15 -27 -32 -54 -37 -60 -11 -14 -120 -168 -132 -187 -26
-41 -227 -291 -278 -345 -21 -23 -39 -44 -38 -47 1 -11 -281 -294 -399 -401
-111 -100 -288 -244 -366 -300 -15 -11 -36 -28 -46 -37 -10 -10 -18 -15 -18
-12 0 3 -17 -8 -37 -24 -51 -40 -172 -122 -180 -122 -3 0 -21 -11 -39 -25 -18
-14 -37 -25 -43 -25 -6 0 -11 -4 -11 -8 0 -4 -19 -18 -42 -30 -24 -13 -52 -28
-63 -35 -11 -7 -47 -27 -80 -46 -33 -19 -63 -39 -66 -44 -3 -5 -9 -8 -13 -8
-3 1 -64 -27 -134 -62 -144 -72 -439 -200 -459 -200 -7 0 -13 -3 -13 -7 0 -4
-6 -7 -12 -8 -7 0 -51 -15 -98 -32 -47 -18 -89 -33 -95 -34 -5 -2 -17 -6 -25
-9 -39 -15 -209 -67 -235 -71 -17 -3 -59 -15 -94 -26 -35 -10 -68 -17 -73 -14
-4 3 -8 1 -8 -5 0 -5 -8 -8 -17 -7 -10 2 -48 -5 -85 -15 -38 -9 -68 -15 -68
-12 0 3 -6 0 -13 -6 -8 -6 -16 -8 -19 -5 -3 3 -23 1 -44 -5 -22 -5 -57 -12
-79 -15 -22 -3 -51 -8 -65 -11 -14 -3 -43 -7 -65 -9 -22 -2 -76 -9 -120 -15
-91 -13 -179 -21 -280 -26 -93 -5 -602 -5 -685 0 -167 11 -204 14 -272 24 -90
13 -140 20 -195 26 -24 3 -70 11 -103 19 -33 8 -60 12 -60 9 0 -3 -6 0 -13 6
-8 6 -16 9 -18 7 -2 -3 -31 2 -63 9 -33 8 -63 12 -68 9 -4 -3 -8 -1 -8 4 0 5
-6 9 -12 9 -20 1 -248 60 -296 77 -23 8 -44 15 -47 15 -3 0 -31 8 -63 18 -31
9 -59 18 -62 18 -3 1 -18 7 -35 14 -16 7 -68 26 -115 42 -47 16 -94 33 -105
38 -51 23 -94 41 -145 61 -30 12 -67 28 -82 36 -15 8 -41 21 -58 30 -16 8 -30
12 -30 7 0 -4 -4 -3 -8 3 -8 11 -86 50 -88 43 -1 -2 -10 3 -20 12 -11 9 -39
26 -64 38 -77 38 -101 52 -225 124 -156 92 -289 177 -293 188 -2 5 -8 9 -13 9
-5 0 -36 19 -68 42 -33 24 -69 50 -81 58 -59 41 -323 254 -369 298 -23 21 -41
37 -41 35 0 -2 -29 25 -64 59 -35 35 -97 95 -138 135 -95 93 -232 241 -299
323 -30 36 -62 72 -71 81 -10 9 -18 21 -18 27 0 6 -3 12 -7 14 -5 1 -28 30
-52 63 -25 33 -49 63 -55 67 -6 4 -7 8 -3 8 4 0 -1 9 -11 20 -11 12 -37 46
-58 78 -21 31 -42 59 -46 60 -5 2 -8 8 -8 13 0 5 -20 40 -44 77 -24 37 -68
106 -99 154 -66 101 -277 504 -307 586 -12 31 -26 62 -32 69 -6 7 -8 13 -4 13
3 0 -5 22 -19 50 -14 27 -25 51 -24 52 0 3 -14 42 -33 86 -6 15 -12 29 -13 32
-1 3 -7 19 -14 35 -7 17 -14 37 -16 45 -2 8 -13 44 -25 80 -12 36 -23 72 -25
80 -2 8 -10 34 -19 58 -8 23 -15 43 -15 45 0 1 -2 9 -5 17 -8 24 -39 134 -42
146 -1 7 -10 45 -19 85 -9 41 -19 85 -21 98 -3 12 -11 51 -19 85 -8 33 -16 72
-19 86 -21 109 -26 141 -30 185 -3 28 -5 50 -6 50 -1 0 -4 20 -6 45 -2 25 -9
77 -15 115 -7 39 -13 95 -16 125 -2 30 -6 93 -9 140 -7 93 -6 493 0 605 8 121
15 198 25 265 10 62 14 92 26 201 8 65 34 203 56 294 11 45 16 68 23 105 2 14
11 53 19 87 8 34 12 64 9 67 -3 3 0 6 7 6 7 0 9 4 6 10 -3 5 3 30 14 55 11 25
18 45 16 45 -2 0 9 38 25 85 16 47 27 85 25 85 -2 0 3 17 11 37 9 20 18 45 20
55 2 10 6 26 8 36 4 17 23 63 56 137 10 22 34 83 55 135 21 52 42 101 47 108
6 6 8 12 5 12 -5 0 54 131 73 160 5 8 30 56 55 105 59 117 123 236 138 253 12
15 32 47 43 72 4 8 10 17 14 20 11 9 90 141 90 151 0 5 3 9 8 9 4 0 16 17 27
37 11 20 25 41 30 47 6 6 50 66 99 134 49 67 93 122 98 122 4 0 7 4 5 9 -2 7
38 58 98 125 132 149 222 245 329 350 160 157 281 264 381 338 27 21 55 41 60
46 24 19 215 142 265 169 190 106 398 195 565 243 97 27 232 62 250 65 11 1
36 5 55 9 19 4 49 9 65 11 17 2 30 4 30 5 0 3 60 10 103 11 23 1 42 5 42 9 0
8 447 4 495 -4 17 -3 53 -7 80 -10 174 -17 471 -100 650 -181 17 -7 33 -14 38
-14 13 0 172 -85 179 -96 4 -5 8 -6 8 -2 0 5 12 0 28 -10 15 -10 39 -25 55
-33 15 -7 27 -17 27 -22 0 -4 6 -8 13 -8 13 0 194 -127 257 -179 10 -9 40 -34
67 -56 146 -122 297 -272 368 -365 27 -36 52 -67 56 -70 11 -8 153 -213 168
-242 8 -16 18 -28 23 -28 5 0 6 -4 3 -10 -3 -5 -2 -10 2 -10 5 0 19 -20 33
-45 14 -25 27 -45 31 -45 3 0 14 -21 24 -47 17 -44 37 -88 112 -251 13 -30 25
-62 26 -73 1 -10 5 -19 9 -19 4 0 7 -3 6 -7 -1 -5 4 -26 11 -48 15 -47 18 -57
20 -67 1 -4 10 -28 21 -53 11 -25 19 -49 19 -53 -1 -4 0 -9 1 -12 1 -3 3 -12
5 -20 1 -8 7 -40 14 -70 15 -79 22 -120 27 -159 2 -19 8 -57 14 -85 29 -147
29 -509 -1 -679 -6 -33 -12 -73 -14 -90 -7 -57 -26 -159 -42 -227 -2 -8 -5
-26 -8 -40 -2 -14 -11 -43 -21 -65 -9 -22 -17 -42 -17 -45 -1 -24 -105 -289
-116 -300 -4 -3 -7 -12 -9 -20 -15 -65 -242 -450 -288 -486 -8 -6 -14 -14 -14
-18 0 -7 -4 -13 -43 -56 -12 -15 -33 -43 -47 -63 -14 -20 -28 -37 -32 -37 -5
0 -8 -5 -8 -10 0 -6 -49 -58 -109 -118 -135 -133 -167 -162 -261 -237 -41 -33
-80 -64 -86 -70 -6 -6 -37 -28 -70 -50 -32 -22 -64 -45 -71 -51 -6 -6 -49 -33
-95 -60 -46 -26 -86 -52 -89 -57 -3 -5 -9 -8 -13 -8 -9 1 -78 -31 -96 -45 -23
-17 -220 -103 -220 -96 0 4 -4 3 -8 -3 -7 -10 -61 -33 -94 -40 -9 -2 -25 -8
-35 -14 -35 -18 -285 -91 -365 -106 -16 -3 -56 -12 -90 -20 -35 -8 -85 -17
-113 -21 -27 -3 -57 -8 -65 -9 -9 -2 -43 -6 -75 -10 -33 -3 -76 -9 -95 -11
-86 -13 -311 -18 -470 -10 -58 3 -116 5 -130 5 -25 1 -194 19 -241 26 -14 3
-41 7 -60 9 -19 3 -59 10 -89 16 -30 6 -71 13 -90 16 -135 21 -549 143 -695
205 -16 7 -32 13 -35 14 -8 3 -40 15 -113 46 -67 27 -68 27 -61 6 29 -95 264
-476 354 -575 9 -9 33 -39 55 -67 141 -177 358 -374 579 -526 141 -97 170
-115 251 -159 44 -24 82 -46 85 -50 4 -6 190 -97 315 -155 33 -15 172 -65 195
-70 8 -2 40 -12 70 -23 53 -19 124 -39 165 -47 11 -2 22 -4 25 -5 3 -1 10 -3
15 -4 6 -1 30 -8 55 -15 25 -7 56 -15 70 -18 35 -7 54 -11 60 -13 3 -1 9 -2
13 -1 5 1 27 -4 50 -10 23 -6 58 -13 77 -14 19 -2 44 -6 55 -8 42 -10 174 -28
226 -31 29 -2 54 -5 54 -6 0 -4 131 -9 255 -9 198 0 379 11 510 30 41 6 84 12
95 14 46 6 113 17 150 25 22 4 47 8 55 8 8 0 25 3 38 6 12 3 32 8 45 11 12 2
43 9 68 15 26 6 53 12 60 13 8 2 20 6 27 10 6 5 12 6 12 3 0 -3 24 2 53 11 28
9 58 16 65 16 6 0 12 4 12 9 0 5 4 7 9 4 5 -4 29 3 54 13 25 11 48 17 51 14 3
-4 6 -2 6 3 0 5 9 10 20 11 10 1 34 8 52 17 18 8 44 18 58 22 14 4 52 19 85
34 191 87 270 122 270 119 0 -1 18 9 40 23 22 14 58 34 80 45 142 72 198 105
360 212 39 25 78 49 88 53 9 4 17 12 17 18 0 5 5 10 10 10 9 0 77 51 154 116
15 13 32 24 36 24 5 0 10 4 12 8 2 5 46 46 98 92 52 46 110 97 127 114 18 17
51 47 73 66 22 19 40 37 40 41 0 3 39 46 88 95 48 49 114 123 147 164 33 41
68 81 78 88 9 7 17 20 17 28 0 8 4 14 9 14 10 0 125 156 142 194 7 14 16 26
21 26 4 0 8 7 8 15 0 8 5 15 11 15 5 0 7 5 4 10 -3 6 -2 10 4 10 5 0 20 19 33
43 14 23 59 103 102 177 88 155 93 164 105 188 48 93 71 145 71 156 0 7 7 19
15 26 9 7 13 15 11 18 -3 3 3 17 14 32 11 16 20 33 20 38 0 6 16 48 36 94 20
45 37 88 38 93 1 6 10 33 20 60 10 28 21 57 24 65 32 90 40 116 36 122 -3 5 0
8 7 8 7 0 10 3 7 6 -4 3 2 36 13 72 11 37 22 80 25 96 2 16 7 32 9 36 5 9 18
70 19 93 0 9 3 17 7 17 4 0 6 7 5 16 -2 9 5 51 15 92 10 41 16 79 13 84 -3 4
0 8 6 8 6 0 9 4 6 8 -3 5 1 44 9 88 13 78 21 144 30 259 3 33 7 70 10 82 3 12
8 112 11 222 5 175 -3 361 -22 526 -12 106 -16 135 -25 205 -15 106 -19 132
-25 153 -3 11 -7 29 -9 40 -2 12 -8 47 -15 77 -6 30 -13 71 -16 90 -2 19 -9
49 -15 66 -9 29 -13 45 -24 100 -3 12 -12 40 -20 63 -8 23 -14 45 -13 49 1 4
-2 14 -5 22 -3 8 -16 49 -28 90 -12 41 -30 92 -41 113 -10 20 -16 37 -12 37 4
0 2 6 -3 13 -6 6 -20 37 -31 67 -23 64 -84 198 -113 252 -11 21 -20 40 -19 43
1 8 -53 115 -81 160 -14 22 -31 55 -38 73 -8 17 -17 32 -21 32 -5 0 -12 12
-18 28 -9 27 -137 234 -174 281 -10 13 -17 26 -14 28 5 5 66 -30 66 -39 0 -4
18 -17 40 -29 22 -13 40 -26 40 -31 0 -4 4 -7 8 -5 5 1 21 -8 38 -20 16 -12
61 -46 99 -75 39 -28 75 -57 82 -63 17 -14 32 -26 78 -59 22 -16 47 -37 57
-45 9 -9 35 -32 58 -51 62 -51 437 -424 501 -498 30 -34 64 -73 75 -87 12 -13
43 -52 70 -87 26 -35 51 -65 55 -68 4 -3 30 -37 58 -75 27 -39 55 -75 61 -82
5 -7 10 -16 10 -22 0 -5 4 -11 9 -13 7 -2 154 -221 198 -293 64 -107 113 -195
113 -204 0 -6 3 -11 8 -11 13 0 216 -412 237 -480 4 -14 17 -45 27 -70 36 -80
46 -105 53 -130 3 -14 13 -39 20 -55 8 -17 16 -42 19 -55 3 -14 17 -56 31 -95
14 -38 37 -110 50 -160 14 -49 38 -136 54 -192 15 -57 26 -105 24 -107 -3 -3
-1 -10 3 -17 4 -7 9 -23 10 -34 1 -12 7 -39 13 -61 12 -46 22 -94 23 -111 1
-7 8 -13 16 -13 11 0 13 8 8 33 -3 17 -8 46 -11 62 -2 17 -7 41 -11 55 -3 14
-7 39 -9 57 -2 17 -8 49 -14 70 -10 40 -17 74 -27 133 -3 19 -12 58 -20 85 -9
28 -18 61 -20 75 -3 14 -19 76 -35 138 -17 62 -32 122 -34 133 -2 11 -14 46
-26 77 -11 31 -22 64 -24 72 -2 8 -10 34 -18 57 -9 22 -13 44 -10 47 4 3 1 6
-5 6 -7 0 -12 7 -12 15 0 15 -40 140 -62 192 -6 16 -12 33 -13 38 -2 6 -13 33
-25 60 -12 27 -28 65 -35 84 -7 20 -22 57 -34 84 -11 26 -20 48 -20 50 2 23
-246 511 -330 650 -39 65 -71 122 -71 127 0 6 -4 10 -10 10 -5 0 -10 6 -10 14
0 7 -7 19 -15 26 -8 7 -12 16 -9 21 3 5 1 9 -4 9 -4 0 -16 15 -25 34 -9 19
-23 43 -31 53 -9 10 -56 77 -105 148 -49 72 -93 135 -98 140 -5 6 -18 26 -31
46 -12 19 -33 48 -46 62 -14 15 -53 64 -88 110 -34 45 -67 87 -73 94 -5 6 -32
37 -60 69 -118 137 -217 244 -226 244 -5 0 -9 5 -9 10 0 10 -214 230 -224 230
-2 0 -23 19 -47 43 -96 93 -191 177 -200 177 -5 0 -14 9 -21 20 -7 11 -16 20
-20 20 -4 0 -27 18 -50 40 -41 38 -151 124 -250 197 -27 19 -48 39 -48 45 0 5
-4 7 -9 3 -5 -3 -12 -1 -16 5 -3 6 -34 29 -68 52 -34 23 -66 46 -72 50 -18 15
-78 55 -140 93 -120 75 -170 109 -177 119 -4 6 -8 7 -8 3 0 -5 -12 0 -27 11
-53 36 -248 144 -403 224 -47 23 -88 48 -92 53 -4 6 -8 6 -8 2 0 -5 -12 -1
-27 7 -16 8 -48 24 -73 35 -93 41 -161 70 -165 70 -3 0 -20 8 -38 18 -17 9
-34 18 -37 18 -3 1 -22 9 -44 18 -21 9 -42 17 -46 17 -4 0 -40 14 -81 31 -41
16 -114 44 -164 60 -49 17 -97 33 -105 36 -8 4 -17 7 -20 8 -3 1 -45 14 -94
29 -49 16 -94 29 -100 30 -6 1 -17 5 -23 9 -7 5 -17 5 -23 2 -5 -3 -10 -2 -10
2 0 5 -11 10 -26 11 -14 1 -33 6 -43 11 -10 6 -29 12 -42 15 -13 2 -64 14
-114 26 -49 12 -101 24 -115 27 -14 2 -41 8 -60 13 -39 10 -80 19 -125 26 -30
5 -107 19 -155 29 -14 3 -38 7 -55 9 -16 2 -64 9 -105 15 -102 16 -137 20
-295 35 -33 4 -87 9 -120 12 -117 12 -836 10 -980 -3z"/>
</g>
</svg>
